<?xml version="1.0" encoding="utf-8"?>
<!-- Generator: Adobe Illustrator 21.0.2, SVG Export Plug-In . SVG Version: 6.00 Build 0)  -->
<svg version="1.1" id="Layer_1" xmlns="http://www.w3.org/2000/svg" xmlns:xlink="http://www.w3.org/1999/xlink" x="0px" y="0px"
	 viewBox="0 0 283.6 327.1" style="enable-background:new 0 0 283.6 327.1;" xml:space="preserve">
<style type="text/css">
	.st0{fill:#EFB45E;}
</style>
<g>
	<circle class="st0" cx="141.8" cy="163.5" r="6.6"/>
	<path class="st0" d="M133.6,173.4c0.2-0.2,0.3-0.5,0.3-0.8c0-0.3-0.1-0.6-0.3-0.8c-0.4-0.4-1.1-0.4-1.5,0c-0.2,0.2-0.3,0.5-0.3,0.8
		c0,0.3,0.1,0.6,0.3,0.8c0.2,0.2,0.5,0.3,0.8,0.3C133.1,173.7,133.3,173.6,133.6,173.4z"/>
	<path class="st0" d="M142.8,150.8c0-0.6-0.5-1.1-1.1-1.1c-3.7,0-7.2,1.5-9.8,4.1c-2.6,2.6-4,6.1-4,9.8v0c0,0.6,0.5,1.1,1.1,1.1
		c0.6,0,1.1-0.5,1.1-1.1v0c0-3.1,1.2-6,3.4-8.2c2.2-2.2,5.1-3.4,8.2-3.4C142.4,151.9,142.8,151.4,142.8,150.8z"/>
	<path class="st0" d="M151.5,153.7c-0.4-0.4-1.1-0.4-1.5,0c-0.2,0.2-0.3,0.5-0.3,0.8c0,0.3,0.1,0.6,0.3,0.8c0.2,0.2,0.5,0.3,0.8,0.3
		c0.3,0,0.6-0.1,0.8-0.3C152,154.8,152,154.1,151.5,153.7C151.5,153.7,151.5,153.7,151.5,153.7z"/>
	<path class="st0" d="M151.6,173.3c2.6-2.6,4-6.1,4-9.7v-0.1c0-0.6-0.5-1.1-1.1-1.1c-0.3,0-0.6,0.1-0.8,0.3
		c-0.2,0.2-0.3,0.5-0.3,0.8v0c0,3.1-1.2,6-3.4,8.2l0,0c0,0,0,0,0,0c-2.2,2.2-5.1,3.4-8.2,3.4c-0.3,0-0.6,0.1-0.8,0.3
		c-0.2,0.2-0.3,0.5-0.3,0.8c0,0.6,0.5,1.1,1.1,1.1C145.5,177.4,149,176,151.6,173.3C151.6,173.3,151.6,173.3,151.6,173.3z"/>
	<path class="st0" d="M121,162.5c-0.3,0-0.6,0.1-0.8,0.3c-0.2,0.2-0.3,0.5-0.3,0.8c0,3.8,1,7.6,2.9,10.9c0,0,0,0,0,0
		c1.9,3.3,4.7,6,8,8c0.2,0.1,0.4,0.1,0.6,0.1c0.4,0,0.8-0.2,0.9-0.5c0.1-0.3,0.2-0.6,0.1-0.8c-0.1-0.3-0.3-0.5-0.5-0.7
		c-3-1.7-5.5-4.2-7.2-7.2c-1.7-3-2.6-6.4-2.6-9.8C122.1,163,121.6,162.5,121,162.5z"/>
	<path class="st0" d="M159.8,154.2c0.2,0,0.4-0.1,0.6-0.2c0.3-0.2,0.4-0.4,0.5-0.7c0.1-0.3,0-0.6-0.1-0.8c-0.3-0.5-1-0.7-1.5-0.4
		c-0.3,0.1-0.4,0.4-0.5,0.7c-0.1,0.3,0,0.6,0.1,0.8c0,0,0,0,0,0C159,154,159.4,154.2,159.8,154.2z"/>
	<path class="st0" d="M123.2,154.1c0.2,0.1,0.4,0.1,0.6,0.1c0.4,0,0.7-0.2,0.9-0.5h0c0.3-0.5,0.1-1.2-0.4-1.5
		c-0.5-0.3-1.2-0.1-1.5,0.4c0,0,0,0,0,0c-0.1,0.3-0.2,0.5-0.1,0.8C122.8,153.8,123,154,123.2,154.1z"/>
	<path class="st0" d="M152.2,182.6c0.2,0,0.4,0,0.6-0.2c3.3-1.9,6.1-4.7,8-8c1.9-3.3,2.9-7.1,2.9-10.9v-0.1c0-0.6-0.5-1.1-1.1-1.1
		c-0.3,0-0.6,0.1-0.8,0.3c-0.2,0.2-0.3,0.5-0.3,0.8v0.1c0,3.5-0.9,6.9-2.6,9.8c-1.7,3-4.2,5.5-7.2,7.2c-0.3,0.1-0.4,0.4-0.5,0.7
		c-0.1,0.3,0,0.6,0.1,0.8C151.4,182.4,151.8,182.6,152.2,182.6z"/>
	<path class="st0" d="M140.7,184.3c0,0.6,0.5,1.1,1.1,1.1c0.6,0,1.1-0.5,1.1-1.1c0-0.6-0.5-1.1-1.1-1.1
		C141.2,183.2,140.7,183.7,140.7,184.3z"/>
	<path class="st0" d="M153.1,146c0.3-0.5,0.1-1.2-0.4-1.5c-3.3-1.9-7.1-2.9-10.9-2.9h-0.1c-3.8,0-7.6,1-10.9,3
		c-0.3,0.2-0.4,0.4-0.5,0.7c-0.1,0.3,0,0.6,0.1,0.8c0.2,0.3,0.6,0.5,0.9,0.5c0.2,0,0.4,0,0.5-0.1c0,0,0,0,0,0c3-1.7,6.4-2.6,9.8-2.7
		h0.1c3.4,0,6.8,0.9,9.8,2.6C152.1,146.7,152.8,146.5,153.1,146z"/>
	<path class="st0" d="M157.7,128.2l-5.5,11.8c-0.1,0.3-0.4,0.5-0.6,0.6c0.2,0.6,0.5,1.1,0.9,1.6L163,127l-8,16.7
		c0.5,0.1,1.1,0.1,1.7,0c-0.1-0.2-0.1-0.5,0.1-0.7c0-0.1,0.1-0.1,0.1-0.2l7.4-10.7l-5,10.7c2.3-1.2,4.7-3.5,6.5-6.6
		c1.6-1.4,3.1-3.2,4.3-5.3c3.6-6.3,0.2-14.8,0-15.1l-0.3-0.7c0.1,0.1,0.3,0.1,0.5,0.1c0.4,0,0.7-0.2,1-0.5c0,0,0,0,0,0
		c0.8-1.4,2.9-1.7,5.4-2.1c3.5-0.5,7.9-1.2,10.4-5.5v0c4.2-7.3-1.1-18-1.3-18.5c-0.2-0.4-0.6-0.6-1-0.6c-0.5,0-12.4,0.8-16.6,8.1
		c-2.6,4.4-0.9,8.7,0.4,12.2c0.8,2.2,1.6,4.1,0.9,5.3c-0.3,0.5-0.1,1.1,0.3,1.4l-0.7,0.1c-0.4,0.1-9.5,1.3-13.1,7.6
		c-1.2,2.1-2,4.3-2.4,6.4c-1.7,3-2.5,6.1-2.4,8.7L157.7,128.2z M169.9,97.3c3.1-5.4,11.6-6.7,14.1-7c1,2.3,4.1,10.4,1,15.7v0
		c-2,3.4-5.4,3.9-8.8,4.4c-1.1,0.2-2.1,0.3-3.1,0.6l1.4-2.7l8.6-3.4c0.1,0.2,0.2,0.4,0.4,0.5c0.1,0.1,0.3,0.1,0.4,0.1
		c0.3,0,0.6-0.2,0.8-0.5c0.1-0.2,0.2-0.5,0.1-0.7c-0.1-0.2-0.2-0.4-0.4-0.5c-0.4-0.2-0.9-0.1-1.2,0.4c-0.1,0.2-0.1,0.4-0.1,0.6
		l-7.3,1.2l2-4c0.1,0,0.2,0,0.2-0.1c0.2,0.1,0.5,0.2,0.8,0.1l5.3-1.9c0.1,0.2,0.2,0.4,0.4,0.5c0.1,0.1,0.3,0.1,0.4,0.1
		c0.1,0,0.2,0,0.3,0c0.2-0.1,0.4-0.2,0.5-0.4v0c0.3-0.4,0.1-1-0.3-1.2c-0.2-0.1-0.4-0.1-0.7-0.1c-0.2,0.1-0.4,0.2-0.5,0.4
		c-0.1,0.1-0.1,0.3-0.1,0.4l-5.3,0.1l2.5-5c0,0,0,0,0,0c0.1,0.1,0.3,0.1,0.4,0.1c0.1,0,0.1,0,0.2,0c0.2-0.1,0.4-0.2,0.6-0.5
		c0.1-0.2,0.2-0.5,0.1-0.7c-0.1-0.2-0.2-0.4-0.4-0.5c-0.4-0.2-0.9-0.1-1.2,0.4c-0.2,0.4-0.1,0.9,0.2,1.2l-3.1,4.9l-2.4-4.2
		c0.1-0.1,0.2-0.2,0.3-0.3c0.1-0.2,0.2-0.5,0.1-0.7c-0.1-0.2-0.2-0.4-0.4-0.5c-0.4-0.2-0.9-0.1-1.2,0.4c-0.3,0.4-0.1,1,0.3,1.2
		c0.1,0.1,0.3,0.1,0.4,0.1c0.1,0,0.2,0,0.2,0l1.1,5.4c0,0.1,0.1,0.2,0.1,0.3c0.1,0.1,0.1,0.2,0.2,0.2l-2.5,3.8l-2.8-7.4
		c0.2-0.1,0.3-0.2,0.4-0.4c0.1-0.2,0.2-0.5,0.1-0.7c-0.1-0.2-0.2-0.4-0.4-0.5c-0.2-0.1-0.4-0.1-0.7-0.1c-0.2,0.1-0.4,0.2-0.5,0.4
		c-0.3,0.4-0.1,1,0.3,1.2c0.1,0.1,0.3,0.1,0.4,0.1c0.1,0,0.1,0,0.2,0l1.4,9.1c0,0.1,0,0.2,0.1,0.2c0,0.1,0.1,0.1,0.1,0.2l-1.6,2.5
		c-0.2-0.9-0.6-1.8-1-2.8C169.2,104.5,167.9,100.9,169.9,97.3z M183.3,104.4c0.2-0.3,0.4-0.4,0.7-0.4c0.1,0,0.2,0,0.3,0.1
		c0.2,0.1,0.3,0.3,0.3,0.5c0,0.2,0,0.4-0.1,0.6c-0.2,0.4-0.7,0.5-1,0.3c-0.2-0.1-0.3-0.2-0.3-0.4l0.7-0.3l-0.7,0.1
		C183.2,104.7,183.2,104.5,183.3,104.4z M184.3,99.4c0.1-0.2,0.3-0.3,0.5-0.4c0.1,0,0.2,0,0.2,0c0.1,0,0.2,0,0.3,0.1
		c0.4,0.2,0.5,0.7,0.2,1.1c-0.1,0.2-0.3,0.3-0.5,0.4c-0.2,0.1-0.4,0-0.6-0.1c-0.2-0.1-0.3-0.3-0.3-0.4l0.7-0.3l-0.7,0
		C184.2,99.7,184.2,99.6,184.3,99.4z M181.3,94.9c-0.3-0.2-0.4-0.7-0.2-1c0.2-0.3,0.4-0.4,0.7-0.4c0.1,0,0.2,0,0.3,0.1
		c0.2,0.1,0.3,0.3,0.3,0.5c0,0.2,0,0.4-0.1,0.6v0c-0.1,0.2-0.3,0.3-0.5,0.4C181.7,95.1,181.5,95.1,181.3,94.9
		C181.4,95,181.4,94.9,181.3,94.9l0.2-0.3L181.3,94.9z M175.5,95.7c-0.2,0.1-0.4,0-0.6-0.1c-0.4-0.2-0.5-0.7-0.2-1.1
		c0.2-0.3,0.4-0.4,0.7-0.4c0.1,0,0.2,0,0.3,0.1c0.2,0.1,0.3,0.3,0.3,0.5c0,0.2,0,0.4-0.1,0.6c-0.1,0.1-0.2,0.2-0.3,0.3l-0.4-0.6
		L175.5,95.7z M171.5,98.2c-0.2,0-0.4,0-0.5-0.1c-0.4-0.2-0.5-0.7-0.2-1.1c0.1-0.2,0.3-0.3,0.5-0.4c0.1,0,0.2,0,0.2,0
		c0.1,0,0.2,0,0.3,0.1c0.2,0.1,0.3,0.3,0.3,0.5c0,0.2,0,0.4-0.1,0.6v0c-0.1,0.2-0.2,0.3-0.4,0.3l-0.3-0.7L171.5,98.2z M157.7,123.9
		c2.5-4.3,8.4-5.9,10.6-6.4c0.7,2.2,2.3,8.1-0.2,12.4v0c-0.3,0.5-0.6,1-0.9,1.4c0.4-4.8-1.5-9.3-1.5-9.3s-4.9,0.7-8.8,3.4
		C157.2,124.9,157.5,124.4,157.7,123.9z"/>
	<path class="st0" d="M174.3,135.3c-2.1,1.2-3.9,2.7-5.3,4.3c-3,1.7-5.2,4-6.5,6.3l10.6-5l-10.7,7.4c-0.2,0.2-0.5,0.2-0.8,0.2
		c-0.1,0.6-0.1,1.2,0,1.8l16.9-7.8L163.2,153c0.4,0.3,0.9,0.6,1.5,0.8c0.1-0.2,0.2-0.5,0.4-0.6c0,0,0.1-0.1,0.2-0.1l11.8-5.5
		l-9.7,6.8c2.6,0.1,5.8-0.7,8.9-2.4c2.1-0.4,4.3-1.2,6.4-2.4h0c6.3-3.6,7.5-12.7,7.6-13.1l0.1-0.7c0.3,0.5,0.9,0.6,1.4,0.3h0
		c0,0,0,0,0,0c1.4-0.8,3.4,0,5.7,0.9c2,0.8,4.4,1.7,6.9,1.7c1.6,0,3.2-0.4,4.8-1.3c7.3-4.2,8.1-16.1,8.1-16.6c0-0.4-0.2-0.8-0.6-1
		c-0.5-0.2-11.1-5.5-18.5-1.3c-4.4,2.6-5.2,7.1-5.7,10.8c-0.4,2.3-0.7,4.3-1.8,5c-0.5,0.3-0.7,0.9-0.4,1.4l-0.7-0.3
		C189.1,135.1,180.6,131.7,174.3,135.3z M199.2,120.3c5.4-3.1,13.4,0,15.7,1c-0.3,2.6-1.6,11-7,14.1c-3.4,2-6.7,0.7-9.8-0.6
		c-1-0.4-2-0.8-3-1.1l2.5-1.6l9.1,1.4c0,0.2,0,0.4,0.1,0.6c0.2,0.3,0.4,0.4,0.7,0.4c0.2,0,0.3,0,0.5-0.1h0c0.4-0.3,0.6-0.8,0.4-1.2
		c-0.1-0.2-0.3-0.3-0.5-0.4c-0.2-0.1-0.5,0-0.7,0.1c-0.2,0.1-0.3,0.3-0.4,0.4l-6.9-2.7l3.7-2.4c0.1,0,0.2,0,0.2,0
		c0.2,0.2,0.4,0.4,0.7,0.5l5.5,1c0,0,0,0,0,0c-0.1,0.2,0,0.4,0.1,0.6c0.2,0.3,0.4,0.4,0.7,0.4c0.2,0,0.3,0,0.5-0.1h0
		c0.4-0.3,0.6-0.8,0.4-1.2c-0.2-0.4-0.8-0.5-1.2-0.3c-0.1,0.1-0.2,0.2-0.3,0.3l-4.7-2.5l4.6-3c0,0,0,0,0,0c0.2,0.3,0.4,0.4,0.7,0.4
		c0.2,0,0.3,0,0.5-0.1h0c0.4-0.3,0.6-0.8,0.4-1.2c-0.1-0.2-0.3-0.3-0.5-0.4c-0.2-0.1-0.5,0-0.7,0.1c-0.2,0.1-0.4,0.3-0.4,0.5
		c-0.1,0.2,0,0.4,0,0.6l-5.1,2.7l0.1-4.8c0.1,0,0.3,0,0.4-0.1c0.2-0.1,0.4-0.3,0.5-0.6c0.1-0.2,0-0.4-0.1-0.6
		c-0.1-0.2-0.3-0.3-0.5-0.4c-0.2-0.1-0.5,0-0.7,0.1c-0.2,0.1-0.4,0.3-0.4,0.5c-0.1,0.2,0,0.5,0.1,0.7c0.1,0.2,0.3,0.3,0.5,0.4
		l-1.8,5.3c0,0.1-0.1,0.2-0.1,0.3c0,0.1,0,0.2,0.1,0.3l-4.1,2.1l1.2-7.8c0,0,0,0,0.1,0c0.2,0,0.3,0,0.5-0.1c0.4-0.3,0.6-0.8,0.4-1.2
		c-0.1-0.2-0.3-0.3-0.5-0.4c-0.2-0.1-0.5,0-0.7,0.1c-0.2,0.1-0.4,0.3-0.4,0.5c-0.1,0.2,0,0.5,0.1,0.7c0.1,0.2,0.3,0.3,0.5,0.4
		l-3.4,8.6c0,0.1,0,0.2-0.1,0.2c0,0.1,0,0.1,0,0.2l-2.7,1.4c0.2-0.9,0.4-1.9,0.6-2.9C195.1,126.1,195.7,122.3,199.2,120.3z
		 M207.7,133.7l-0.7-0.3c0.1-0.1,0.2-0.3,0.3-0.4c0.1-0.1,0.3-0.1,0.4-0.1c0.1,0,0.1,0,0.2,0c0.2,0,0.4,0.2,0.5,0.3
		c0.2,0.4,0.1,0.8-0.3,1c-0.4,0.2-0.9,0.1-1.1-0.2c-0.1-0.2-0.1-0.3-0.1-0.5L207.7,133.7z M204.9,121.7c-0.2,0-0.4-0.2-0.5-0.3
		c-0.1-0.2-0.1-0.4-0.1-0.6c0.1-0.2,0.2-0.4,0.4-0.5c0.1-0.1,0.3-0.1,0.4-0.1c0.1,0,0.1,0,0.2,0c0.2,0,0.4,0.2,0.5,0.3
		c0.1,0.2,0.1,0.3,0.1,0.5c-0.1,0.2-0.2,0.4-0.4,0.5h0c-0.1,0.1-0.2,0.1-0.4,0.1l0-0.7L204.9,121.7z M210.4,129.6
		c0.1-0.1,0.2-0.2,0.3-0.3c0.1-0.1,0.3-0.1,0.4-0.1c0.3,0,0.5,0.1,0.6,0.4c0.2,0.4,0.1,0.8-0.3,1c-0.4,0.2-0.9,0.1-1.1-0.2
		c-0.1-0.2-0.1-0.3-0.1-0.5c0,0,0,0,0,0l0.8,0.1L210.4,129.6z M210.3,123.9c-0.1-0.2-0.1-0.3,0-0.5c0.1-0.2,0.2-0.4,0.4-0.5
		c0.1-0.1,0.3-0.1,0.4-0.1c0.1,0,0.1,0,0.2,0c0.2,0,0.4,0.2,0.5,0.3c0.2,0.4,0.1,0.8-0.3,1C211.1,124.4,210.6,124.3,210.3,123.9
		C210.4,123.9,210.4,123.9,210.3,123.9l0.3-0.2L210.3,123.9z M200.1,121.8c-0.2-0.1-0.3-0.2-0.4-0.3c-0.1-0.2-0.1-0.4-0.1-0.6
		c0.1-0.2,0.2-0.4,0.4-0.5c0.1-0.1,0.3-0.1,0.4-0.1c0.1,0,0.1,0,0.2,0c0.2,0,0.4,0.2,0.5,0.3c0.2,0.4,0.1,0.8-0.3,1
		c-0.2,0.1-0.3,0.1-0.5,0.1l0.1-0.7L200.1,121.8z M187.8,137c-0.5,2.2-2.1,8.1-6.4,10.6h0c-0.5,0.3-1,0.5-1.5,0.8
		c2.7-3.9,3.4-8.8,3.4-8.8s-4.6-1.9-9.3-1.5c0.5-0.3,0.9-0.6,1.4-0.9c1.7-1,3.8-1.3,5.7-1.3C183.9,135.8,186.5,136.6,187.8,137z"/>
	<path class="st0" d="M109.2,191.8c2.1-1.2,3.9-2.7,5.3-4.3c3-1.7,5.2-4,6.5-6.3l-10.6,5l10.7-7.4c0.2-0.2,0.5-0.2,0.8-0.2
		c0.1-0.6,0.1-1.2,0-1.8l-16.9,7.8l15.3-10.5c-0.4-0.3-0.9-0.6-1.5-0.8c-0.1,0.2-0.2,0.5-0.4,0.6c0,0-0.1,0.1-0.2,0.1l-11.8,5.5
		l9.7-6.8c-2.6-0.1-5.8,0.7-8.9,2.4c-2.1,0.4-4.3,1.2-6.4,2.4h0c-6.3,3.6-7.5,12.7-7.6,13.1l-0.1,0.7c-0.3-0.5-0.9-0.6-1.4-0.3h0
		c0,0,0,0,0,0c-1.4,0.8-3.4,0-5.7-0.9c-3.3-1.3-7.4-2.9-11.7-0.4h0c-7.3,4.2-8.1,16.1-8.1,16.6c0,0.4,0.2,0.8,0.6,1
		c0.3,0.2,5.9,2.9,11.7,2.9c2.3,0,4.7-0.4,6.8-1.6c4.4-2.6,5.2-7.1,5.7-10.8c0.4-2.3,0.7-4.3,1.8-5c0.5-0.3,0.7-0.9,0.4-1.4l0.7,0.3
		c0.2,0.1,4,1.6,8.3,1.6C104.7,193.5,107.1,193,109.2,191.8z M84.3,206.8c-5.4,3.1-13.4,0-15.7-1c0.3-2.6,1.6-11,7-14.1
		c3.4-2,6.7-0.7,9.8,0.6c1,0.4,2,0.8,3,1.1l-2.5,1.6l-9.1-1.4c0-0.2,0-0.4-0.1-0.6c-0.2-0.4-0.8-0.5-1.2-0.3h0
		c-0.4,0.3-0.6,0.8-0.4,1.2c0.1,0.2,0.3,0.3,0.5,0.4c0.1,0,0.1,0,0.2,0c0.2,0,0.3,0,0.5-0.1c0.2-0.1,0.3-0.3,0.4-0.4l6.9,2.7
		l-3.7,2.4c-0.1,0-0.2,0-0.2,0c-0.2-0.2-0.4-0.4-0.7-0.5l-5.5-1c0,0,0,0,0,0c0.1-0.2,0-0.4-0.1-0.6c-0.2-0.4-0.8-0.5-1.2-0.3h0
		c-0.4,0.3-0.6,0.8-0.4,1.2c0.2,0.3,0.4,0.4,0.7,0.4c0.2,0,0.3,0,0.5-0.1c0.1-0.1,0.2-0.2,0.3-0.3l4.7,2.5l-4.6,3c0,0,0,0,0,0
		c-0.2-0.4-0.8-0.5-1.2-0.3h0c-0.4,0.3-0.6,0.8-0.4,1.2c0.1,0.2,0.3,0.3,0.5,0.4c0.1,0,0.1,0,0.2,0c0.2,0,0.3,0,0.5-0.1
		c0.2-0.1,0.4-0.3,0.5-0.6c0.1-0.2,0-0.4-0.1-0.5l5.1-2.7l-0.1,4.8c-0.1,0-0.3,0-0.4,0.1c-0.2,0.1-0.4,0.3-0.5,0.6
		c-0.1,0.2,0,0.4,0.1,0.6c0.1,0.2,0.3,0.3,0.5,0.4c0.1,0,0.1,0,0.2,0c0.2,0,0.3,0,0.5-0.1c0.2-0.1,0.4-0.3,0.4-0.5
		c0.1-0.2,0-0.5-0.1-0.7c-0.1-0.2-0.3-0.3-0.5-0.4l1.8-5.2c0-0.1,0.1-0.2,0.1-0.3c0-0.1,0-0.2-0.1-0.3l4.1-2.1l-1.2,7.8
		c-0.2,0-0.4,0-0.6,0.1h0c-0.4,0.3-0.6,0.8-0.4,1.2c0.1,0.2,0.3,0.3,0.5,0.4c0.1,0,0.1,0,0.2,0c0.2,0,0.3,0,0.5-0.1
		c0.2-0.1,0.4-0.3,0.4-0.5c0.1-0.2,0-0.5-0.1-0.7c-0.1-0.2-0.3-0.3-0.5-0.4l3.4-8.6c0-0.1,0-0.2,0.1-0.2c0-0.1,0-0.1,0-0.2l2.7-1.4
		c-0.2,0.9-0.4,1.9-0.6,2.9C88.5,201,87.9,204.8,84.3,206.8z M75.9,193.4l0.7,0.3c-0.1,0.1-0.2,0.3-0.3,0.4
		c-0.2,0.1-0.4,0.1-0.6,0.1c-0.2,0-0.4-0.2-0.5-0.3c-0.2-0.4-0.1-0.8,0.3-1c0.4-0.2,0.9-0.1,1.1,0.2c0.1,0.2,0.1,0.3,0.1,0.5
		L75.9,193.4z M73.2,197.5c-0.1,0.1-0.2,0.2-0.3,0.3c-0.4,0.2-0.9,0.1-1.1-0.2c-0.2-0.4-0.1-0.8,0.3-1c0.4-0.2,0.9-0.1,1.1,0.2
		c0.1,0.2,0.1,0.3,0.1,0.5c0,0,0,0,0,0l-0.8-0.1L73.2,197.5z M73.2,203.2c0.1,0.1,0.1,0.3,0,0.5c-0.1,0.2-0.2,0.4-0.4,0.5
		c-0.2,0.1-0.4,0.1-0.6,0.1c-0.2,0-0.4-0.2-0.5-0.3c-0.2-0.4-0.1-0.8,0.3-1C72.5,202.7,73,202.8,73.2,203.2
		C73.2,203.2,73.2,203.2,73.2,203.2l-0.3,0.2L73.2,203.2z M78,205.5L78,205.5c0.1-0.1,0.3-0.1,0.4-0.1l0,0.8l0.2-0.7
		c0.2,0,0.4,0.1,0.5,0.3c0.1,0.2,0.1,0.4,0.1,0.6c-0.1,0.2-0.2,0.4-0.4,0.5c-0.2,0.1-0.4,0.1-0.6,0.1c-0.2,0-0.4-0.2-0.5-0.3
		c-0.1-0.2-0.1-0.3-0.1-0.5C77.7,205.8,77.8,205.7,78,205.5z M83.4,205.3c0.2,0,0.3,0.2,0.4,0.3c0.1,0.2,0.1,0.4,0.1,0.6
		c-0.1,0.2-0.2,0.4-0.4,0.5c-0.2,0.1-0.4,0.1-0.6,0.1c-0.2,0-0.4-0.2-0.5-0.3c-0.2-0.4-0.1-0.8,0.3-1c0.2-0.1,0.3-0.1,0.5-0.1
		l-0.1,0.7L83.4,205.3z M95.8,190.1c0.5-2.2,2.1-8.1,6.4-10.6h0c0.5-0.3,1-0.5,1.5-0.8c-2.7,3.9-3.4,8.8-3.4,8.8s4.6,1.9,9.3,1.5
		c-0.5,0.3-0.9,0.6-1.4,0.9C103.8,192.4,97.9,190.8,95.8,190.1z"/>
	<path class="st0" d="M125.9,198.8l5.5-11.8c0.1-0.3,0.4-0.5,0.6-0.6c-0.2-0.6-0.5-1.1-0.9-1.6l-10.7,15.2l8-16.7
		c-0.5-0.1-1.1-0.1-1.7,0c0.1,0.2,0.1,0.5-0.1,0.7c0,0.1-0.1,0.1-0.1,0.2l-7.4,10.7l5-10.7c-2.3,1.2-4.7,3.5-6.5,6.6
		c-1.6,1.4-3.1,3.2-4.3,5.3c-3.6,6.3-0.2,14.8,0,15.1l0.3,0.7c-0.5-0.2-1.1-0.1-1.4,0.4l0,0c-0.8,1.4-2.9,1.7-5.4,2.1
		c-3.5,0.5-7.9,1.2-10.4,5.5v0c-4.2,7.3,1.1,18,1.3,18.5c0.2,0.4,0.6,0.6,1,0.6c0,0,0,0,0.1,0c0.5,0,12.4-0.8,16.6-8.1
		c2.6-4.4,0.9-8.7-0.4-12.2c-0.8-2.2-1.6-4.1-0.9-5.3c0.3-0.5,0.1-1.1-0.3-1.4l0.7-0.1c0.4-0.1,9.5-1.3,13.1-7.6
		c1.2-2.1,2-4.3,2.4-6.4c1.7-3,2.5-6.1,2.4-8.7L125.9,198.8z M113.7,229.8c-3.1,5.4-11.6,6.7-14.1,7c-1-2.3-4.1-10.4-1-15.7v0
		c2-3.4,5.4-3.9,8.8-4.4c1.1-0.2,2.1-0.3,3.1-0.6l-1.4,2.7l-8.6,3.4c-0.1-0.2-0.2-0.4-0.4-0.5c-0.4-0.2-0.9-0.1-1.2,0.4
		c-0.1,0.2-0.2,0.5-0.1,0.7c0.1,0.2,0.2,0.4,0.4,0.5c0.1,0.1,0.3,0.1,0.4,0.1c0.3,0,0.6-0.2,0.8-0.5c0.1-0.2,0.1-0.4,0.1-0.6
		l7.3-1.2l-2,4c-0.1,0-0.2,0-0.2,0.1c-0.2-0.1-0.5-0.2-0.8-0.1l-5.3,1.9c-0.1-0.2-0.2-0.4-0.4-0.5c-0.2-0.1-0.4-0.1-0.7-0.1
		c-0.2,0.1-0.4,0.2-0.5,0.4v0c-0.3,0.4-0.1,1,0.3,1.2c0.1,0.1,0.3,0.1,0.4,0.1c0.1,0,0.2,0,0.3,0c0.2-0.1,0.4-0.2,0.5-0.4
		c0.1-0.1,0.1-0.3,0.1-0.4l5.3-0.1l-2.5,5c0,0,0,0,0,0c-0.2-0.1-0.4-0.1-0.7-0.1c-0.2,0.1-0.4,0.2-0.5,0.4c-0.1,0.2-0.2,0.5-0.1,0.7
		c0.1,0.2,0.2,0.4,0.4,0.5c0.1,0.1,0.3,0.1,0.4,0.1c0.3,0,0.6-0.2,0.8-0.5c0.2-0.4,0.1-0.9-0.2-1.2l3.1-4.9l2.4,4.2
		c-0.1,0.1-0.2,0.2-0.3,0.3c-0.1,0.2-0.2,0.5-0.1,0.7c0.1,0.2,0.2,0.4,0.4,0.5c0.1,0.1,0.3,0.1,0.4,0.1c0.3,0,0.6-0.2,0.8-0.5
		c0.3-0.4,0.1-1-0.3-1.2c-0.2-0.1-0.4-0.1-0.6-0.1l-1.1-5.4c0-0.1-0.1-0.2-0.1-0.3c-0.1-0.1-0.1-0.2-0.2-0.2l2.5-3.8l2.8,7.4
		c-0.2,0.1-0.3,0.2-0.4,0.4c-0.1,0.2-0.2,0.5-0.1,0.7c0.1,0.2,0.2,0.4,0.4,0.5c0.1,0.1,0.3,0.1,0.4,0.1c0.3,0,0.6-0.2,0.8-0.5
		c0.3-0.4,0.1-1-0.3-1.2c-0.2-0.1-0.4-0.1-0.6-0.1l-1.4-9.1c0-0.1,0-0.2-0.1-0.2c0-0.1-0.1-0.1-0.1-0.2l1.6-2.5
		c0.2,0.9,0.6,1.8,1,2.8C114.3,222.6,115.7,226.2,113.7,229.8z M100.3,222.7c-0.2,0.4-0.7,0.5-1,0.3c-0.2-0.1-0.3-0.3-0.3-0.5
		c0-0.2,0-0.4,0.1-0.6c0.2-0.3,0.4-0.4,0.7-0.4c0.1,0,0.2,0,0.3,0.1c0.2,0.1,0.3,0.2,0.3,0.4l-0.7,0.3l0.7-0.1
		C100.4,222.4,100.4,222.6,100.3,222.7z M99.3,227.7c-0.1,0.2-0.3,0.3-0.5,0.4c-0.2,0.1-0.4,0-0.6-0.1c-0.4-0.2-0.5-0.7-0.2-1.1
		c0.1-0.2,0.3-0.3,0.5-0.4c0.2-0.1,0.4,0,0.6,0.1c0.2,0.1,0.3,0.3,0.3,0.4l-0.7,0.3l0.7,0C99.4,227.4,99.3,227.5,99.3,227.7z
		 M102.2,232.2c0.3,0.2,0.4,0.7,0.2,1c-0.2,0.4-0.7,0.5-1,0.3c-0.2-0.1-0.3-0.3-0.3-0.5c0-0.2,0-0.4,0.1-0.6v0
		c0.1-0.2,0.3-0.3,0.5-0.4c0.1,0,0.2,0,0.2,0C102,232,102.1,232.1,102.2,232.2C102.2,232.1,102.2,232.1,102.2,232.2l-0.2,0.3
		L102.2,232.2z M108.1,231.4c0.1,0,0.1,0,0.2,0c0.1,0,0.2,0,0.3,0.1c0.4,0.2,0.5,0.7,0.2,1.1c-0.2,0.4-0.7,0.5-1,0.3
		c-0.2-0.1-0.3-0.3-0.3-0.5c0-0.2,0-0.4,0.1-0.6c0.1-0.1,0.2-0.2,0.3-0.3l0.4,0.7L108.1,231.4z M111.6,229.3
		C111.6,229.3,111.6,229.3,111.6,229.3c0.1-0.2,0.2-0.3,0.4-0.3l0.3,0.7l-0.1-0.8c0.1,0,0.1,0,0.2,0c0.1,0,0.2,0,0.3,0.1
		c0.4,0.2,0.5,0.7,0.2,1.1c-0.2,0.4-0.7,0.5-1,0.3c-0.2-0.1-0.3-0.3-0.3-0.5C111.4,229.7,111.5,229.5,111.6,229.3z M125.8,203.2
		c-2.5,4.3-8.4,5.9-10.6,6.4c-0.7-2.2-2.3-8.1,0.2-12.4v0c0.3-0.5,0.6-1,0.9-1.4c-0.4,4.8,1.5,9.3,1.5,9.3s4.9-0.7,8.8-3.4
		C126.4,202.2,126.1,202.7,125.8,203.2z"/>
	<path class="st0" d="M137.3,102.5c1.8,1.5,3.4,2.8,3.4,4.1c0,0.6,0.4,1,1,1.1l-0.6,0.4c-0.3,0.2-7.5,5.9-7.5,13.1
		c0,2.5,0.4,4.8,1.1,6.7c0,3.4,0.9,6.5,2.2,8.7l1-11.6l1.1,13c0,0.3-0.1,0.6-0.3,0.8c0.5,0.4,1,0.7,1.5,0.9l1.6-18.5l1.4,18.5
		c0.5-0.2,1-0.5,1.5-0.9c-0.2-0.2-0.3-0.4-0.3-0.7c0-0.1,0-0.1,0-0.2l1.1-13l1,11.8c1.4-2.2,2.3-5.4,2.3-8.9c0.7-2,1.1-4.3,1.1-6.7
		c0-7.2-7.2-12.9-7.5-13.1l-0.6-0.4c0.6-0.1,1-0.5,1-1.1c0-1.6,1.7-3,3.6-4.5c2.8-2.2,6.2-4.9,6.2-9.9c0-8.5-9.9-15.1-10.4-15.4
		c-0.4-0.2-0.8-0.2-1.2,0c-0.4,0.3-10.4,6.9-10.4,15.4C130.8,97.3,134.4,100.2,137.3,102.5z M147.8,121.2c0,0.6,0,1.1-0.1,1.7
		c-2-4.3-5.9-7.4-5.9-7.4s-3.9,3-5.9,7.4c0-0.5-0.1-1.1-0.1-1.7c0-5,4.3-9.3,6-10.8C143.5,111.9,147.8,116.3,147.8,121.2z M141.8,79
		c2.1,1.5,8.8,6.9,8.8,13.1c0,3.9-2.7,6.1-5.4,8.2c-0.9,0.7-1.7,1.3-2.4,2.1l-0.2-3l5.7-7.2c0.1,0.1,0.3,0.2,0.6,0.2
		c0.5,0,0.8-0.4,0.8-0.9c0-0.5-0.4-0.9-0.8-0.9c-0.5,0-0.8,0.4-0.8,0.9c0,0.2,0.1,0.4,0.2,0.5l-5.8,4.7l-0.2-4.5
		c0.1,0,0.1-0.1,0.2-0.2c0.3,0,0.5-0.1,0.7-0.4l3.6-4.3c0.2,0.2,0.3,0.2,0.6,0.2c0.5,0,0.8-0.4,0.8-0.9c0-0.5-0.4-0.9-0.8-0.9
		c-0.5,0-0.8,0.4-0.8,0.9c0,0.2,0.1,0.3,0.1,0.4l-4.5,2.8l-0.3-5.5c0,0,0,0,0,0c0.5,0,0.8-0.4,0.8-0.9c0-0.5-0.4-0.9-0.8-0.9
		c-0.5,0-0.8,0.4-0.8,0.9c0,0.5,0.3,0.9,0.8,0.9l-0.3,5.8l-4.2-2.5c0.1-0.1,0.1-0.3,0.1-0.4c0-0.5-0.4-0.9-0.8-0.9
		c-0.5,0-0.8,0.4-0.8,0.9c0,0.5,0.4,0.9,0.8,0.9c0.2,0,0.4-0.1,0.6-0.3l3.7,4.2c0.1,0.1,0.2,0.1,0.2,0.2c0.1,0.1,0.2,0.1,0.3,0.1
		l-0.2,4.6l-6.1-5c0.1-0.2,0.2-0.3,0.2-0.5c0-0.5-0.4-0.9-0.8-0.9c-0.5,0-0.8,0.4-0.8,0.9c0,0.5,0.4,0.9,0.8,0.9
		c0.2,0,0.4-0.1,0.6-0.2l5.8,7.2c0,0.1,0.1,0.1,0.2,0.2c0.1,0,0.1,0.1,0.2,0.1l-0.1,3c-0.7-0.7-1.4-1.3-2.2-1.9
		c-2.6-2.1-5.6-4.6-5.6-8.6C133,86,139.7,80.6,141.8,79z M148.3,92c-0.1-0.1-0.2-0.3-0.2-0.5c0-0.4,0.3-0.8,0.7-0.8
		c0.4,0,0.7,0.4,0.7,0.8c0,0.4-0.3,0.8-0.7,0.8c-0.2,0-0.4-0.1-0.5-0.2l0.5-0.6L148.3,92z M146.7,87.2c-0.1-0.1-0.1-0.2-0.1-0.4
		c0-0.4,0.3-0.8,0.7-0.8s0.7,0.4,0.7,0.8c0,0.4-0.3,0.8-0.7,0.8c-0.2,0-0.4-0.1-0.5-0.2l0.5-0.6L146.7,87.2z M141.7,84l0,0.3
		c-0.4,0-0.7-0.4-0.7-0.8c0-0.4,0.3-0.8,0.7-0.8c0.4,0,0.7,0.4,0.7,0.8c0,0.4-0.3,0.8-0.7,0.8c0,0,0,0,0,0L141.7,84z M136.6,87.3
		l0.5,0.6c-0.1,0.1-0.3,0.2-0.5,0.2c-0.4,0-0.7-0.4-0.7-0.8c0-0.4,0.3-0.8,0.7-0.8c0.4,0,0.7,0.4,0.7,0.8c0,0.1,0,0.3-0.1,0.4
		L136.6,87.3z M134.3,91.5l0.5,0.6c-0.1,0.1-0.3,0.2-0.5,0.2c-0.4,0-0.7-0.4-0.7-0.8c0-0.4,0.3-0.8,0.7-0.8s0.7,0.4,0.7,0.8
		c0,0.2-0.1,0.3-0.2,0.5L134.3,91.5z"/>
	<path class="st0" d="M107.3,112.9c2.3,0.4,4.3,0.7,5,1.8c0.2,0.4,0.6,0.5,0.9,0.5c0.2,0,0.3,0,0.5-0.1l-0.3,0.7
		c-0.1,0.4-3.6,8.9,0,15.1c1.2,2.1,2.7,3.9,4.3,5.3c1.7,3,4,5.2,6.3,6.5l-5-10.6l7.4,10.7c0.2,0.2,0.2,0.5,0.2,0.8
		c0.6,0.1,1.2,0.1,1.8,0l-7.8-16.9l10.5,15.3c0.3-0.4,0.6-0.9,0.8-1.5c-0.2-0.1-0.5-0.2-0.6-0.4c0,0-0.1-0.1-0.1-0.2l-5.5-11.8
		l6.8,9.7c0.1-2.6-0.7-5.8-2.4-8.9c-0.4-2.1-1.2-4.3-2.4-6.4c-3.6-6.3-12.7-7.5-13.1-7.6l-0.7-0.1c0.5-0.3,0.6-0.9,0.3-1.4v0
		c-0.8-1.4,0-3.4,0.9-5.7c1.3-3.3,2.9-7.4,0.4-11.7c-4.2-7.3-16.1-8.1-16.6-8.1c-0.4,0-0.8,0.2-1,0.6c-0.2,0.5-5.5,11.1-1.3,18.5
		C99.2,111.6,103.7,112.3,107.3,112.9z M115.2,117.5c2.2,0.5,8.1,2.1,10.6,6.4v0c0.3,0.5,0.5,1,0.8,1.5c-3.9-2.7-8.8-3.4-8.8-3.4
		s-1.9,4.6-1.5,9.3c-0.3-0.5-0.6-0.9-0.9-1.4C112.9,125.6,114.5,119.7,115.2,117.5z M99.5,90.4c2.6,0.3,11,1.6,14.1,7
		c2,3.4,0.7,6.7-0.6,9.8c-0.4,1-0.8,2-1.1,3l-1.6-2.5l1.4-9.1c0.1,0,0.1,0,0.2,0c0.1,0,0.3,0,0.4-0.1c0.4-0.2,0.5-0.8,0.3-1.2v0
		c-0.3-0.4-0.8-0.6-1.2-0.4c-0.2,0.1-0.3,0.3-0.4,0.5c-0.1,0.2,0,0.5,0.1,0.7c0.1,0.2,0.3,0.3,0.4,0.4l-2.7,6.9l-2.4-3.7
		c0-0.1,0-0.2,0-0.2c0.2-0.2,0.4-0.4,0.5-0.7l1-5.5c0,0,0,0,0,0c0.1,0,0.1,0,0.2,0c0.1,0,0.3,0,0.4-0.1c0.4-0.2,0.5-0.8,0.3-1.2v0
		c-0.3-0.4-0.8-0.6-1.2-0.4c-0.4,0.2-0.5,0.8-0.3,1.2c0.1,0.1,0.2,0.2,0.3,0.3l-2.5,4.7l-3-4.6c0,0,0,0,0,0c0.4-0.2,0.5-0.8,0.3-1.2
		v0c-0.3-0.4-0.8-0.6-1.2-0.4c-0.2,0.1-0.3,0.3-0.4,0.5c-0.1,0.2,0,0.5,0.1,0.7c0.1,0.2,0.3,0.4,0.6,0.5c0.1,0,0.1,0,0.2,0
		c0.1,0,0.2,0,0.3-0.1l2.7,5.1l-4.8-0.1c0-0.1,0-0.3-0.1-0.4c-0.1-0.2-0.3-0.4-0.5-0.4c-0.2-0.1-0.5,0-0.7,0.1
		c-0.2,0.1-0.3,0.3-0.4,0.5c-0.1,0.2,0,0.5,0.1,0.7c0.1,0.2,0.3,0.4,0.5,0.4c0.1,0,0.2,0,0.3,0c0.1,0,0.3,0,0.4-0.1
		c0.2-0.1,0.3-0.3,0.4-0.5l5.2,1.8c0.1,0,0.2,0.1,0.3,0.1c0.1,0,0.2,0,0.3-0.1l2.1,4.1l-7.8-1.2c0-0.2,0-0.4-0.1-0.6v0
		c-0.3-0.4-0.8-0.6-1.2-0.4c-0.4,0.2-0.5,0.8-0.3,1.2c0.1,0.2,0.3,0.4,0.5,0.4c0.1,0,0.2,0,0.3,0c0.1,0,0.3,0,0.4-0.1
		c0.2-0.1,0.3-0.3,0.4-0.5l8.6,3.4c0.1,0,0.2,0,0.2,0.1c0.1,0,0.1,0,0.2,0l1.4,2.7c-0.9-0.2-1.9-0.4-2.9-0.6
		c-3.4-0.5-7.2-1.1-9.2-4.7C95.4,100.7,98.5,92.7,99.5,90.4z M111.7,98.3c-0.1-0.1-0.3-0.2-0.4-0.3c-0.1-0.2-0.1-0.4-0.1-0.6
		c0-0.2,0.2-0.4,0.3-0.5c0.1-0.1,0.2-0.1,0.3-0.1c0.3,0,0.5,0.2,0.7,0.4c0.2,0.4,0.1,0.9-0.2,1.1c-0.2,0.1-0.3,0.1-0.5,0.1l0.1-0.8
		L111.7,98.3z M107.8,95c-0.1-0.1-0.2-0.2-0.3-0.3c-0.2-0.4-0.1-0.9,0.2-1.1c0.1-0.1,0.2-0.1,0.3-0.1c0.3,0,0.5,0.2,0.7,0.4
		c0.2,0.4,0.1,0.9-0.2,1.1c-0.2,0.1-0.3,0.1-0.5,0.1c0,0,0,0,0,0l0.1-0.8L107.8,95z M102.1,95c-0.1,0.1-0.3,0.1-0.5,0
		c-0.2-0.1-0.4-0.2-0.5-0.4c-0.1-0.2-0.1-0.4-0.1-0.6c0-0.2,0.2-0.4,0.3-0.5c0.1-0.1,0.2-0.1,0.3-0.1c0.3,0,0.5,0.2,0.7,0.4
		C102.6,94.3,102.5,94.8,102.1,95C102.2,95,102.2,95,102.1,95l-0.2-0.3L102.1,95z M99.9,100.4c0,0.2-0.2,0.4-0.3,0.5
		c-0.2,0.1-0.4,0.1-0.6,0.1c-0.2-0.1-0.4-0.2-0.5-0.4c-0.1-0.2-0.1-0.4-0.1-0.6c0-0.2,0.2-0.4,0.3-0.5c0.1-0.1,0.2-0.1,0.3-0.1
		c0.1,0,0.2,0,0.2,0c0.2,0.1,0.4,0.2,0.5,0.4v0c0.1,0.1,0.1,0.2,0.1,0.4l-0.7,0L99.9,100.4z M99.3,104.9l0.7,0.3
		c-0.1,0.2-0.2,0.3-0.3,0.4c-0.2,0.1-0.4,0.1-0.6,0.1c-0.2-0.1-0.4-0.2-0.5-0.4c-0.2-0.4-0.1-0.9,0.2-1.1c0.1-0.1,0.2-0.1,0.3-0.1
		c0.3,0,0.5,0.2,0.7,0.4c0.1,0.2,0.1,0.3,0.1,0.5L99.3,104.9z"/>
	<path class="st0" d="M74.5,137.3c1.7,1,3.4,1.3,5,1.3c2.6,0,5.1-0.9,7.2-1.8c2.2-0.8,4.1-1.6,5.3-0.9c0.5,0.3,1.1,0.1,1.4-0.3
		l0.1,0.7c0.1,0.4,1.3,9.5,7.6,13.1c2.1,1.2,4.3,2,6.4,2.4c3,1.7,6.1,2.5,8.7,2.4l-9.6-6.7l11.8,5.5c0.3,0.1,0.5,0.4,0.6,0.6
		c0.6-0.2,1.1-0.5,1.6-0.9l-15.2-10.7l16.7,8c0.1-0.5,0.1-1.1,0-1.7c-0.2,0.1-0.5,0.1-0.7-0.1c-0.1,0-0.1-0.1-0.2-0.1l-10.7-7.4
		l10.7,5c-1.2-2.3-3.5-4.7-6.6-6.5c-1.4-1.6-3.2-3.1-5.3-4.3h0c-6.3-3.6-14.8-0.2-15.1,0l-0.7,0.3c0.2-0.5,0.1-1.1-0.4-1.4
		c0,0,0,0,0,0c-1.4-0.8-1.7-2.9-2.1-5.4c-0.5-3.5-1.2-7.9-5.5-10.4h0c-7.3-4.2-18,1.1-18.5,1.3c-0.4,0.2-0.6,0.6-0.6,1
		C66.4,121.2,67.1,133.1,74.5,137.3z M108.1,137.2L108.1,137.2c0.5,0.3,1,0.6,1.4,0.9c-4.8-0.4-9.3,1.5-9.3,1.5s0.7,4.9,3.4,8.8
		c-0.5-0.2-1-0.5-1.5-0.8c-4.3-2.5-5.9-8.4-6.4-10.6C97.9,136.3,103.8,134.7,108.1,137.2z M84.3,120.3L84.3,120.3
		c3.4,2,3.9,5.4,4.4,8.8c0.2,1.1,0.3,2.1,0.6,3.1l-2.7-1.4l-3.4-8.6c0.2-0.1,0.4-0.2,0.5-0.4c0.2-0.4,0.1-0.9-0.4-1.2
		c-0.2-0.1-0.5-0.2-0.7-0.1c-0.2,0.1-0.4,0.2-0.5,0.4c-0.2,0.4-0.1,0.9,0.4,1.2c0.2,0.1,0.3,0.1,0.5,0.1c0,0,0,0,0.1,0l1.2,7.3l-4-2
		c0-0.1,0-0.2-0.1-0.2c0.1-0.2,0.2-0.5,0.1-0.8l-1.9-5.3c0.2-0.1,0.4-0.2,0.5-0.4c0.1-0.2,0.1-0.4,0.1-0.7c-0.1-0.2-0.2-0.4-0.4-0.5
		c0,0,0,0,0,0c-0.4-0.3-1-0.1-1.2,0.3c-0.1,0.2-0.1,0.4-0.1,0.7c0.1,0.2,0.2,0.4,0.4,0.5c0.1,0.1,0.3,0.1,0.4,0.1l0.1,5.3l-5-2.5
		c0,0,0,0,0,0c0.1-0.2,0.1-0.4,0.1-0.6c-0.1-0.2-0.2-0.4-0.5-0.6c-0.2-0.1-0.5-0.2-0.7-0.1c-0.2,0.1-0.4,0.2-0.5,0.4
		c-0.2,0.4-0.1,0.9,0.4,1.2c0.2,0.1,0.3,0.1,0.5,0.1c0.3,0,0.5-0.1,0.7-0.3l4.9,3.1l-4.2,2.4c-0.1-0.1-0.2-0.2-0.3-0.3
		c-0.2-0.1-0.5-0.2-0.7-0.1c-0.2,0.1-0.4,0.2-0.5,0.4c-0.2,0.4-0.1,0.9,0.4,1.2c0.2,0.1,0.3,0.1,0.5,0.1c0.1,0,0.1,0,0.2,0
		c0.2-0.1,0.4-0.2,0.5-0.4c0.1-0.2,0.1-0.4,0.1-0.6l5.4-1.1c0.1,0,0.2-0.1,0.3-0.1c0.1-0.1,0.2-0.1,0.2-0.2l3.8,2.5l-7.4,2.8
		c-0.1-0.2-0.2-0.3-0.4-0.4c-0.2-0.1-0.5-0.2-0.7-0.1c-0.2,0.1-0.4,0.2-0.5,0.4c-0.1,0.2-0.1,0.4-0.1,0.7c0.1,0.2,0.2,0.4,0.4,0.5
		c0.2,0.1,0.3,0.1,0.5,0.1c0.3,0,0.6-0.1,0.7-0.4c0.1-0.2,0.1-0.4,0.1-0.6l9.1-1.4c0.1,0,0.2,0,0.2-0.1c0.1,0,0.1-0.1,0.2-0.1
		l2.5,1.6c-0.9,0.2-1.8,0.6-2.8,1c-3.2,1.2-6.8,2.6-10.3,0.6c-5.4-3.1-6.7-11.6-7-14.1C70.9,120.3,79,117.2,84.3,120.3z M83.1,122.1
		c-0.2,0-0.3,0-0.5-0.1c-0.4-0.2-0.5-0.7-0.3-1c0.1-0.2,0.3-0.3,0.5-0.3c0.1,0,0.1,0,0.2,0c0.1,0,0.3,0,0.4,0.1
		c0.4,0.2,0.5,0.7,0.3,1c-0.1,0.2-0.2,0.3-0.4,0.3l-0.3-0.7L83.1,122.1z M78.1,121.1c-0.1,0-0.3,0-0.4-0.1c-0.2-0.1-0.3-0.3-0.4-0.5
		c-0.1-0.2,0-0.4,0.1-0.6c0.1-0.2,0.4-0.4,0.6-0.4c0.1,0,0.3,0,0.4,0.1c0.2,0.1,0.3,0.3,0.4,0.5c0.1,0.2,0,0.4-0.1,0.6
		c-0.1,0.2-0.3,0.3-0.4,0.3l-0.3-0.7L78.1,121.1z M73.2,124c-0.2,0.3-0.7,0.4-1,0.2c-0.4-0.2-0.5-0.7-0.3-1c0.1-0.2,0.3-0.3,0.5-0.3
		c0.1,0,0.1,0,0.2,0c0.1,0,0.3,0,0.4,0.1h0c0.2,0.1,0.3,0.3,0.4,0.5C73.3,123.6,73.3,123.8,73.2,124C73.2,124,73.2,124,73.2,124
		l-0.3-0.2L73.2,124z M73.9,129.8c0.1,0.2,0,0.4-0.1,0.6c-0.1,0.2-0.3,0.3-0.5,0.3c-0.2,0-0.4,0-0.6-0.1c-0.4-0.2-0.5-0.7-0.3-1
		c0.1-0.2,0.3-0.3,0.5-0.3c0.1,0,0.1,0,0.2,0c0.1,0,0.3,0,0.4,0.1c0.1,0.1,0.2,0.2,0.3,0.3l-0.6,0.4L73.9,129.8z M76.5,133.9
		c0,0.2,0,0.4-0.1,0.5c-0.2,0.4-0.7,0.5-1.1,0.2c-0.2-0.1-0.3-0.3-0.4-0.5c-0.1-0.2,0-0.4,0.1-0.6c0.1-0.2,0.3-0.3,0.5-0.3
		c0.1,0,0.1,0,0.2,0c0.1,0,0.3,0,0.4,0.1c0.2,0.1,0.3,0.2,0.3,0.4l-0.7,0.3L76.5,133.9z"/>
	<path class="st0" d="M80.7,168.1c1.5-1.8,2.8-3.4,4.1-3.4c0.6,0,1-0.4,1.1-1l0.4,0.6c0.2,0.3,5.9,7.5,13.1,7.5
		c2.5,0,4.8-0.4,6.7-1.1c3.4,0,6.5-0.9,8.7-2.2l-11.6-1l13-1.1c0.3,0,0.6,0.1,0.8,0.3c0.4-0.5,0.7-1,0.9-1.5l-18.5-1.6L118,162
		c-0.2-0.5-0.5-1-0.9-1.5c-0.2,0.2-0.4,0.3-0.7,0.3c-0.1,0-0.1,0-0.2,0l-13-1.1l11.8-1c-2.2-1.4-5.4-2.3-8.9-2.3
		c-2-0.7-4.3-1.1-6.7-1.1c-7.2,0-12.9,7.2-13.1,7.5l-0.4,0.6c-0.1-0.6-0.5-1-1.1-1c-1.6,0-3-1.7-4.5-3.6c-2.2-2.8-4.9-6.2-9.9-6.2
		c-8.5,0-15.1,9.9-15.4,10.4c-0.2,0.4-0.2,0.8,0,1.2c0.3,0.4,6.9,10.4,15.4,10.4C75.5,174.5,78.4,170.9,80.7,168.1z M99.5,157.5
		c0.6,0,1.1,0,1.7,0.1c-4.3,2-7.4,5.9-7.4,5.9s3,3.9,7.4,5.9c-0.5,0-1.1,0.1-1.7,0.1c-5,0-9.3-4.3-10.8-6
		C90.2,161.9,94.5,157.5,99.5,157.5z M57.3,163.5c1.5-2.1,6.9-8.8,13.1-8.8c3.9,0,6.1,2.7,8.2,5.4c0.7,0.9,1.3,1.7,2.1,2.4l-3,0.2
		l-7.2-5.7c0.1-0.1,0.2-0.3,0.2-0.6c0-0.5-0.4-0.8-0.9-0.8c-0.5,0-0.9,0.4-0.9,0.8c0,0.5,0.4,0.8,0.9,0.8c0.2,0,0.4-0.1,0.5-0.2
		l4.7,5.8l-4.5,0.2c0-0.1-0.1-0.1-0.2-0.2c0-0.3-0.1-0.5-0.4-0.7l-4.3-3.6c0.2-0.2,0.2-0.3,0.2-0.6c0-0.5-0.4-0.8-0.9-0.8
		c-0.5,0-0.9,0.4-0.9,0.8c0,0.5,0.4,0.8,0.9,0.8c0.2,0,0.3-0.1,0.4-0.1l2.8,4.5l-5.5,0.3c0,0,0,0,0,0c0-0.5-0.4-0.8-0.9-0.8
		s-0.9,0.4-0.9,0.8s0.4,0.8,0.9,0.8c0.5,0,0.9-0.3,0.9-0.8l5.8,0.3L66,168c-0.1-0.1-0.3-0.1-0.4-0.1c-0.5,0-0.9,0.4-0.9,0.8
		c0,0.5,0.4,0.8,0.9,0.8c0.5,0,0.9-0.4,0.9-0.8c0-0.2-0.1-0.4-0.3-0.6l4.2-3.7c0.1-0.1,0.1-0.2,0.2-0.2c0.1-0.1,0.1-0.2,0.1-0.3
		l4.6,0.2l-5,6.1c-0.2-0.1-0.3-0.2-0.5-0.2c-0.5,0-0.9,0.4-0.9,0.8c0,0.5,0.4,0.8,0.9,0.8c0.5,0,0.9-0.4,0.9-0.8
		c0-0.2-0.1-0.4-0.2-0.6l7.2-5.8c0.1,0,0.1-0.1,0.2-0.2c0-0.1,0.1-0.1,0.1-0.2l3,0.1c-0.7,0.7-1.3,1.4-1.9,2.2
		c-2.1,2.6-4.6,5.6-8.6,5.6C64.2,172.3,58.8,165.6,57.3,163.5z M70.2,157c-0.1,0.1-0.3,0.2-0.5,0.2c-0.4,0-0.8-0.3-0.8-0.7
		c0-0.4,0.4-0.7,0.8-0.7c0.4,0,0.8,0.3,0.8,0.7c0,0.2-0.1,0.4-0.2,0.5l-0.6-0.5L70.2,157z M65.4,158.7c-0.1,0.1-0.2,0.1-0.4,0.1
		c-0.4,0-0.8-0.3-0.8-0.7s0.4-0.7,0.8-0.7c0.4,0,0.8,0.3,0.8,0.7c0,0.2-0.1,0.4-0.2,0.5L65,158L65.4,158.7z M62.6,163.6
		c0,0.4-0.4,0.7-0.8,0.7c-0.4,0-0.8-0.3-0.8-0.7c0-0.4,0.4-0.7,0.8-0.7S62.6,163.1,62.6,163.6C62.6,163.6,62.6,163.6,62.6,163.6
		l-0.3,0L62.6,163.6z M66.2,168.3c0.1,0.1,0.2,0.3,0.2,0.5c0,0.4-0.4,0.7-0.8,0.7c-0.4,0-0.8-0.3-0.8-0.7c0-0.4,0.4-0.7,0.8-0.7
		c0.1,0,0.3,0,0.4,0.1l-0.4,0.6L66.2,168.3z M70.4,170.5c0.1,0.1,0.2,0.3,0.2,0.5c0,0.4-0.4,0.7-0.8,0.7c-0.4,0-0.8-0.3-0.8-0.7
		c0-0.4,0.4-0.7,0.8-0.7c0.2,0,0.3,0.1,0.5,0.2l-0.5,0.6L70.4,170.5z"/>
	<path class="st0" d="M146.3,224.6c-1.8-1.5-3.4-2.8-3.4-4.1c0-0.6-0.4-1-1-1.1l0.6-0.4c0.3-0.2,7.5-5.9,7.5-13.1
		c0-2.5-0.4-4.8-1.1-6.7c0-3.4-0.9-6.5-2.2-8.7l-1,11.6l-1.1-13c0-0.3,0.1-0.6,0.3-0.8c-0.5-0.4-1-0.7-1.5-0.9l-1.6,18.5l-1.4-18.5
		c-0.5,0.2-1,0.5-1.5,0.9c0.2,0.2,0.3,0.4,0.3,0.7c0,0.1,0,0.1,0,0.2l-1.1,13l-1-11.8c-1.4,2.2-2.3,5.4-2.3,8.9
		c-0.7,2-1.1,4.3-1.1,6.7c0,7.2,7.2,12.9,7.5,13.1l0.6,0.4c-0.6,0.1-1,0.5-1,1.1c0,1.6-1.7,3-3.6,4.5c-2.8,2.2-6.2,4.9-6.2,9.9
		c0,8.5,9.9,15.1,10.4,15.4c0.2,0.1,0.4,0.2,0.6,0.2c0.2,0,0.4-0.1,0.6-0.2c0.4-0.3,10.4-6.9,10.4-15.4
		C152.7,229.8,149.2,226.9,146.3,224.6z M135.8,205.9c0-0.6,0-1.1,0.1-1.7c2,4.3,5.9,7.4,5.9,7.4s3.9-3,5.9-7.4
		c0,0.5,0.1,1.1,0.1,1.7c0,5-4.3,9.3-6,10.8C140.1,215.2,135.8,210.8,135.8,205.9z M141.8,248.1c-2.1-1.5-8.8-6.9-8.8-13.1
		c0-3.9,2.7-6.1,5.4-8.2c0.9-0.7,1.7-1.3,2.4-2.1l0.2,3l-5.7,7.2c-0.1-0.1-0.3-0.2-0.6-0.2c-0.5,0-0.8,0.4-0.8,0.9s0.4,0.9,0.8,0.9
		c0.5,0,0.8-0.4,0.8-0.9c0-0.2-0.1-0.4-0.2-0.5l5.8-4.7l0.2,4.5c-0.1,0-0.1,0.1-0.2,0.2c-0.3,0-0.5,0.1-0.7,0.4l-3.6,4.3
		c-0.2-0.2-0.3-0.2-0.6-0.2c-0.5,0-0.8,0.4-0.8,0.9c0,0.5,0.4,0.9,0.8,0.9c0.5,0,0.8-0.4,0.8-0.9c0-0.2-0.1-0.3-0.1-0.4l4.5-2.8
		l0.3,5.5c0,0,0,0,0,0c-0.5,0-0.8,0.4-0.8,0.9c0,0.5,0.4,0.9,0.8,0.9c0.5,0,0.8-0.4,0.8-0.9c0-0.5-0.3-0.9-0.8-0.9l0.3-5.8l4.2,2.5
		c-0.1,0.1-0.1,0.3-0.1,0.4c0,0.5,0.4,0.9,0.8,0.9c0.5,0,0.8-0.4,0.8-0.9c0-0.5-0.4-0.9-0.8-0.9c-0.2,0-0.4,0.1-0.6,0.3l-3.7-4.2
		c-0.1-0.1-0.2-0.1-0.2-0.2c-0.1-0.1-0.2-0.1-0.3-0.1l0.2-4.6l6.1,5c-0.1,0.2-0.2,0.3-0.2,0.5c0,0.5,0.4,0.9,0.8,0.9
		c0.5,0,0.8-0.4,0.8-0.9s-0.4-0.9-0.8-0.9c-0.2,0-0.4,0.1-0.5,0.2l-5.8-7.2c0-0.1-0.1-0.1-0.2-0.2c-0.1,0-0.1-0.1-0.2-0.1l0.1-3
		c0.7,0.7,1.4,1.3,2.2,1.9c2.6,2.1,5.6,4.6,5.6,8.6C150.6,241.1,143.9,246.5,141.8,248.1z M135.3,235.1c0.1,0.1,0.2,0.3,0.2,0.5
		c0,0.4-0.3,0.8-0.7,0.8c-0.4,0-0.7-0.4-0.7-0.8s0.3-0.8,0.7-0.8c0.2,0,0.4,0.1,0.5,0.2l-0.5,0.6L135.3,235.1z M136.9,239.9
		c0.1,0.1,0.1,0.2,0.1,0.4c0,0.4-0.3,0.8-0.7,0.8s-0.7-0.4-0.7-0.8c0-0.4,0.3-0.8,0.7-0.8c0.2,0,0.4,0.1,0.5,0.2l-0.5,0.6
		L136.9,239.9z M141.8,243.1l0-0.3c0.4,0,0.7,0.4,0.7,0.8c0,0.4-0.3,0.8-0.7,0.8c-0.4,0-0.7-0.4-0.7-0.8c0-0.4,0.3-0.8,0.7-0.8
		c0,0,0,0,0,0L141.8,243.1z M147,239.8l-0.5-0.6c0.1-0.1,0.3-0.2,0.5-0.2c0.4,0,0.7,0.4,0.7,0.8c0,0.4-0.3,0.8-0.7,0.8
		c-0.4,0-0.7-0.4-0.7-0.8c0-0.1,0-0.3,0.1-0.4L147,239.8z M149.2,235.6l-0.5-0.6c0.1-0.1,0.3-0.2,0.5-0.2c0.4,0,0.7,0.4,0.7,0.8
		s-0.3,0.8-0.7,0.8s-0.7-0.4-0.7-0.8c0-0.2,0.1-0.3,0.2-0.5L149.2,235.6z"/>
	<path class="st0" d="M187,219.9c-2.6-4.4-7.1-5.2-10.8-5.7c-2.3-0.4-4.3-0.7-5-1.8c-0.3-0.5-0.9-0.7-1.4-0.4l0.3-0.7
		c0.1-0.4,3.6-8.9,0-15.1c-1.2-2.1-2.7-3.9-4.3-5.3c-1.7-3-4-5.2-6.3-6.5l5,10.6l-7.4-10.7c-0.2-0.2-0.2-0.5-0.2-0.8
		c-0.6-0.1-1.2-0.1-1.8,0l7.8,16.9l-10.5-15.3c-0.3,0.4-0.6,0.9-0.8,1.5c0.2,0.1,0.5,0.2,0.6,0.4c0,0,0.1,0.1,0.1,0.2l5.5,11.8
		l-6.8-9.7c-0.1,2.6,0.7,5.8,2.4,8.9c0.4,2.1,1.2,4.3,2.4,6.4c3.6,6.3,12.7,7.5,13.1,7.6l0.7,0.1c-0.5,0.3-0.6,0.9-0.3,1.4
		c0,0,0,0,0,0c0.8,1.4,0,3.4-0.9,5.7c-1.3,3.3-2.9,7.4-0.4,11.7c4.2,7.3,16.1,8.1,16.6,8.1c0,0,0,0,0.1,0c0.4,0,0.8-0.2,1-0.6
		C185.9,237.9,191.2,227.2,187,219.9z M168.4,209.6c-2.2-0.5-8.1-2.1-10.6-6.4v0c-0.3-0.5-0.5-1-0.8-1.5c3.9,2.7,8.8,3.4,8.8,3.4
		s1.9-4.6,1.5-9.3c0.3,0.5,0.6,0.9,0.9,1.4C170.6,201.5,169.1,207.4,168.4,209.6z M184,236.7c-2.6-0.3-11-1.6-14.1-7c0,0,0,0,0,0
		c-2-3.4-0.7-6.7,0.6-9.8c0.4-1,0.8-2,1.1-3l1.6,2.5l-1.4,9.1c-0.2,0-0.4,0-0.6,0.1c-0.4,0.2-0.5,0.8-0.3,1.2v0
		c0.2,0.3,0.5,0.5,0.8,0.5c0.1,0,0.3,0,0.4-0.1c0.2-0.1,0.3-0.3,0.4-0.5c0.1-0.2,0-0.5-0.1-0.7c-0.1-0.2-0.3-0.3-0.4-0.4l2.7-6.9
		l2.4,3.7c0,0.1,0,0.2,0,0.2c-0.2,0.2-0.4,0.4-0.5,0.7l-1,5.5c-0.2-0.1-0.4,0-0.6,0.1c-0.4,0.2-0.5,0.8-0.3,1.2v0
		c0.2,0.3,0.5,0.5,0.8,0.5c0.1,0,0.3,0,0.4-0.1c0.4-0.2,0.5-0.8,0.3-1.2c-0.1-0.1-0.2-0.2-0.3-0.3l2.5-4.7l3,4.6c0,0,0,0,0,0
		c-0.4,0.2-0.5,0.8-0.3,1.2v0c0.2,0.3,0.5,0.5,0.8,0.5c0.1,0,0.3,0,0.4-0.1c0.2-0.1,0.3-0.3,0.4-0.5c0.1-0.2,0-0.5-0.1-0.7
		c-0.1-0.2-0.3-0.4-0.5-0.4c-0.2-0.1-0.4,0-0.6,0l-2.7-5.1l4.8,0.1c0,0.1,0,0.3,0.1,0.4c0.1,0.2,0.3,0.4,0.6,0.5c0.1,0,0.1,0,0.2,0
		c0.1,0,0.3,0,0.4-0.1c0.2-0.1,0.3-0.3,0.4-0.5c0.1-0.2,0-0.5-0.1-0.7c-0.1-0.2-0.3-0.4-0.5-0.4c-0.2-0.1-0.5,0-0.7,0.1
		c-0.2,0.1-0.3,0.3-0.4,0.5l-5.2-1.8c-0.1,0-0.2-0.1-0.3-0.1c-0.1,0-0.2,0-0.3,0.1l-2.1-4.1l7.8,1.2c0,0.2,0,0.4,0.1,0.6v0
		c0.2,0.3,0.5,0.5,0.8,0.5c0.1,0,0.3,0,0.4-0.1c0.2-0.1,0.3-0.3,0.4-0.5c0.1-0.2,0-0.5-0.1-0.7c-0.3-0.4-0.8-0.6-1.2-0.4
		c-0.2,0.1-0.3,0.3-0.4,0.5l-8.6-3.4c-0.1,0-0.2,0-0.2-0.1c-0.1,0-0.1,0-0.2,0l-1.4-2.7c0.9,0.2,1.9,0.4,2.9,0.6
		c3.4,0.5,7.2,1.1,9.2,4.7C188.2,226.4,185.1,234.4,184,236.7z M171.9,228.8c0.1,0.1,0.3,0.2,0.4,0.3c0.1,0.2,0.1,0.4,0.1,0.6
		c0,0.2-0.2,0.4-0.3,0.5c-0.4,0.2-0.8,0.1-1-0.3c-0.2-0.4-0.1-0.9,0.2-1.1c0.2-0.1,0.3-0.1,0.5-0.1l-0.1,0.8L171.9,228.8z
		 M175.7,232.1c0.1,0.1,0.2,0.2,0.3,0.3c0.2,0.4,0.1,0.9-0.2,1.1c-0.4,0.2-0.8,0.1-1-0.3c-0.2-0.4-0.1-0.9,0.2-1.1
		c0.2-0.1,0.4-0.1,0.5-0.1l-0.1,0.8L175.7,232.1z M181.5,232.1c0.2-0.1,0.3-0.1,0.5,0c0.2,0.1,0.4,0.2,0.5,0.4
		c0.1,0.2,0.1,0.4,0.1,0.6c0,0.2-0.2,0.4-0.3,0.5c-0.4,0.2-0.8,0.1-1-0.3C180.9,232.8,181,232.3,181.5,232.1
		C181.4,232.1,181.4,232.1,181.5,232.1l0.2,0.3L181.5,232.1z M183.7,226.7c0-0.2,0.2-0.4,0.3-0.5c0.1-0.1,0.2-0.1,0.3-0.1
		c0.1,0,0.2,0,0.2,0c0.2,0.1,0.4,0.2,0.5,0.4c0.1,0.2,0.1,0.4,0.1,0.6c0,0.2-0.2,0.4-0.3,0.5c-0.2,0.1-0.3,0.1-0.5,0.1
		c-0.2-0.1-0.4-0.2-0.5-0.4c0,0,0,0,0,0c-0.1-0.1-0.1-0.2-0.1-0.4l0.7,0L183.7,226.7z M183.5,221.9c0-0.2,0.2-0.3,0.3-0.4
		c0.3-0.2,0.8-0.1,1,0.3c0.1,0.2,0.1,0.4,0.1,0.6c0,0.2-0.2,0.4-0.3,0.5c-0.4,0.2-0.8,0.1-1-0.3c-0.1-0.2-0.1-0.3-0.1-0.5l0.7,0.1
		L183.5,221.9z"/>
	<path class="st0" d="M209.1,189.8c-4.4-2.6-8.7-0.9-12.2,0.4c-2.2,0.8-4.1,1.6-5.3,0.9c-0.5-0.3-1.1-0.1-1.4,0.3l-0.1-0.7
		c-0.1-0.4-1.3-9.5-7.6-13.1c-2.1-1.2-4.3-2-6.4-2.4c-3-1.7-6.1-2.5-8.7-2.4l9.6,6.7l-11.8-5.5c-0.3-0.1-0.5-0.4-0.6-0.6
		c-0.6,0.2-1.1,0.5-1.6,0.9l15.2,10.7l-16.7-8c-0.1,0.5-0.1,1.1,0,1.7c0.2-0.1,0.5-0.1,0.7,0.1c0.1,0,0.1,0.1,0.2,0.1l10.7,7.4
		l-10.7-5c1.2,2.3,3.5,4.7,6.6,6.5c1.4,1.6,3.2,3.1,5.3,4.3h0c2.1,1.2,4.6,1.6,6.8,1.6c4.3,0,8.1-1.5,8.3-1.6l0.7-0.3
		c-0.2,0.5-0.1,1.1,0.4,1.4l0,0c1.4,0.8,1.7,2.9,2.1,5.4c0.5,3.5,1.2,7.9,5.5,10.4h0c2.1,1.2,4.4,1.6,6.8,1.6
		c5.8,0,11.4-2.8,11.7-2.9c0.4-0.2,0.6-0.6,0.6-1C217.2,205.9,216.4,194,209.1,189.8z M175.4,189.9L175.4,189.9
		c-0.5-0.3-1-0.6-1.4-0.9c4.8,0.4,9.3-1.5,9.3-1.5s-0.7-4.9-3.4-8.8c0.5,0.2,1,0.5,1.5,0.8c4.3,2.5,5.9,8.4,6.4,10.6
		C185.6,190.8,179.7,192.4,175.4,189.9z M199.2,206.8L199.2,206.8c-3.4-2-3.9-5.4-4.4-8.8c-0.2-1.1-0.3-2.1-0.6-3.1l2.7,1.4l3.4,8.6
		c-0.2,0.1-0.4,0.2-0.5,0.4c-0.2,0.4-0.1,0.9,0.4,1.2c0.2,0.1,0.3,0.1,0.5,0.1c0.1,0,0.1,0,0.2,0c0.2-0.1,0.4-0.2,0.5-0.4
		c0.2-0.4,0.1-0.9-0.4-1.2c-0.2-0.1-0.4-0.1-0.6-0.1l-1.2-7.3l4,2c0,0.1,0,0.2,0.1,0.2c-0.1,0.2-0.2,0.5-0.1,0.8l1.9,5.3
		c-0.2,0.1-0.4,0.2-0.5,0.4c-0.1,0.2-0.1,0.4-0.1,0.7c0.1,0.2,0.2,0.4,0.4,0.5c0,0,0,0,0,0c0.2,0.1,0.3,0.1,0.5,0.1
		c0.3,0,0.6-0.1,0.7-0.4c0.1-0.2,0.1-0.4,0.1-0.7c-0.1-0.2-0.2-0.4-0.4-0.5c-0.1-0.1-0.3-0.1-0.4-0.1l-0.1-5.3l5,2.5c0,0,0,0,0,0
		c-0.1,0.2-0.1,0.4-0.1,0.7c0.1,0.2,0.2,0.4,0.4,0.5c0.2,0.1,0.3,0.1,0.5,0.1c0.1,0,0.1,0,0.2,0c0.2-0.1,0.4-0.2,0.5-0.4
		c0.2-0.4,0.1-0.9-0.4-1.2c-0.4-0.2-0.9-0.1-1.2,0.2l-4.9-3.1l4.2-2.4c0.1,0.1,0.2,0.2,0.3,0.3c0.2,0.1,0.3,0.1,0.5,0.1
		c0.1,0,0.1,0,0.2,0c0.2-0.1,0.4-0.2,0.5-0.4c0.2-0.4,0.1-0.9-0.4-1.2c-0.4-0.3-1-0.1-1.2,0.3c-0.1,0.2-0.1,0.4-0.1,0.6l-5.4,1.1
		c-0.1,0-0.2,0.1-0.3,0.1c-0.1,0.1-0.2,0.1-0.2,0.2l-3.8-2.5l7.4-2.8c0.1,0.2,0.2,0.3,0.4,0.4c0.2,0.1,0.3,0.1,0.5,0.1
		c0.1,0,0.1,0,0.2,0c0.2-0.1,0.4-0.2,0.5-0.4c0.2-0.4,0.1-0.9-0.4-1.2c-0.4-0.3-1-0.1-1.2,0.3c-0.1,0.2-0.1,0.4-0.1,0.6l-9.1,1.4
		c-0.1,0-0.2,0-0.2,0.1c-0.1,0-0.1,0.1-0.2,0.1l-2.5-1.6c0.9-0.2,1.8-0.6,2.8-1c3.2-1.2,6.8-2.6,10.3-0.6c5.4,3.1,6.7,11.6,7,14.1
		C212.6,206.8,204.6,209.9,199.2,206.8z M200.5,205C200.5,205,200.5,204.9,200.5,205c0.2,0,0.4,0,0.5,0.1c0.4,0.2,0.5,0.7,0.3,1
		c-0.1,0.2-0.3,0.3-0.5,0.3c-0.2,0-0.4,0-0.6-0.1c-0.4-0.2-0.5-0.7-0.3-1c0.1-0.2,0.2-0.3,0.4-0.3l0.3,0.7L200.5,205z M205.5,206
		c0.1,0,0.3,0,0.4,0.1c0.2,0.1,0.3,0.3,0.4,0.5c0.1,0.2,0,0.4-0.1,0.6c-0.2,0.4-0.7,0.5-1.1,0.2c-0.2-0.1-0.3-0.3-0.4-0.5
		c-0.1-0.2,0-0.4,0.1-0.6c0.1-0.2,0.3-0.3,0.4-0.3l0.3,0.7L205.5,206z M210.4,203.1c0.1-0.2,0.3-0.3,0.6-0.3c0.1,0,0.3,0,0.4,0.1
		c0.4,0.2,0.5,0.7,0.3,1c-0.1,0.2-0.3,0.3-0.5,0.3c-0.2,0-0.4,0-0.6-0.1h0c-0.2-0.1-0.3-0.3-0.4-0.5
		C210.2,203.5,210.3,203.3,210.4,203.1C210.4,203.1,210.4,203.1,210.4,203.1l0.3,0.2L210.4,203.1z M209.6,197.3
		c-0.1-0.2,0-0.4,0.1-0.6c0.1-0.2,0.4-0.4,0.6-0.4c0.1,0,0.3,0,0.4,0.1c0.4,0.2,0.5,0.7,0.3,1c-0.1,0.2-0.3,0.3-0.5,0.3
		c-0.2,0-0.4,0-0.6-0.1c-0.1-0.1-0.2-0.2-0.3-0.3l0.6-0.4L209.6,197.3z M207.2,192.7c0.1-0.2,0.4-0.4,0.6-0.4c0.1,0,0.3,0,0.4,0.1
		c0.4,0.2,0.5,0.7,0.3,1c-0.1,0.2-0.3,0.3-0.5,0.3c-0.2,0-0.4,0-0.6-0.1h0c-0.2-0.1-0.3-0.2-0.3-0.4l0.7-0.3l-0.8,0.1
		C207.1,193,207.1,192.9,207.2,192.7z"/>
	<path class="st0" d="M202.8,159c-1.5,1.8-2.8,3.4-4.1,3.4c-0.6,0-1,0.4-1.1,1l-0.4-0.6c-0.2-0.3-5.9-7.5-13.1-7.5
		c-2.5,0-4.8,0.4-6.7,1.1c-3.4,0-6.5,0.9-8.7,2.2l11.6,1l-13,1.1c-0.3,0-0.6-0.1-0.8-0.3c-0.4,0.5-0.7,1-0.9,1.5l18.5,1.6l-18.5,1.4
		c0.2,0.5,0.5,1,0.9,1.5c0.2-0.2,0.4-0.3,0.7-0.3c0.1,0,0.1,0,0.2,0l13,1.1l-11.8,1c2.2,1.4,5.4,2.3,8.9,2.3c2,0.7,4.3,1.1,6.7,1.1
		c7.2,0,12.9-7.2,13.1-7.5l0.4-0.6c0.1,0.6,0.5,1,1.1,1c1.6,0,3,1.7,4.5,3.6c2.2,2.8,4.9,6.2,9.9,6.2c8.5,0,15.1-9.9,15.4-10.4
		c0.2-0.4,0.2-0.8,0-1.2c-0.3-0.4-6.9-10.4-15.4-10.4C208.1,152.6,205.2,156.2,202.8,159z M184.1,169.6c-0.6,0-1.1,0-1.7-0.1
		c4.3-2,7.4-5.9,7.4-5.9s-3-3.9-7.4-5.9c0.5,0,1.1-0.1,1.7-0.1c5,0,9.3,4.3,10.8,6C193.4,165.2,189.1,169.6,184.1,169.6z
		 M226.3,163.5c-1.5,2.1-6.9,8.8-13.1,8.8c-3.9,0-6.1-2.7-8.2-5.4c-0.7-0.9-1.3-1.7-2.1-2.4l3-0.2l7.2,5.7c-0.1,0.1-0.2,0.3-0.2,0.6
		c0,0.5,0.4,0.8,0.9,0.8c0.5,0,0.9-0.4,0.9-0.8c0-0.5-0.4-0.8-0.9-0.8c-0.2,0-0.4,0.1-0.5,0.2l-4.7-5.8l4.5-0.2
		c0,0.1,0.1,0.1,0.2,0.2c0,0.3,0.1,0.5,0.4,0.7l4.3,3.6c-0.2,0.2-0.2,0.3-0.2,0.6c0,0.5,0.4,0.8,0.9,0.8c0.5,0,0.9-0.4,0.9-0.8
		c0-0.5-0.4-0.8-0.9-0.8c-0.2,0-0.3,0.1-0.4,0.1l-2.8-4.5l5.5-0.3c0,0,0,0,0,0c0,0.5,0.4,0.8,0.9,0.8c0.5,0,0.9-0.4,0.9-0.8
		s-0.4-0.8-0.9-0.8c-0.5,0-0.9,0.3-0.9,0.8l-5.8-0.3l2.5-4.2c0.1,0.1,0.3,0.1,0.4,0.1c0.5,0,0.9-0.4,0.9-0.8c0-0.5-0.4-0.8-0.9-0.8
		c-0.5,0-0.9,0.4-0.9,0.8c0,0.2,0.1,0.4,0.3,0.6l-4.2,3.7c-0.1,0.1-0.1,0.2-0.2,0.2c-0.1,0.1-0.1,0.2-0.1,0.3l-4.6-0.2l5-6.1
		c0.2,0.1,0.3,0.2,0.5,0.2c0.5,0,0.9-0.4,0.9-0.8c0-0.5-0.4-0.8-0.9-0.8c-0.5,0-0.9,0.4-0.9,0.8c0,0.2,0.1,0.4,0.2,0.5l-7.2,5.8
		c-0.1,0-0.1,0.1-0.2,0.2c0,0.1-0.1,0.1-0.1,0.2l-3-0.1c0.7-0.7,1.3-1.4,1.9-2.2c2.1-2.6,4.6-5.6,8.6-5.6
		C219.4,154.8,224.8,161.5,226.3,163.5z M213.3,170.1c0.1-0.1,0.3-0.2,0.5-0.2c0.4,0,0.8,0.3,0.8,0.7s-0.4,0.7-0.8,0.7
		c-0.4,0-0.8-0.3-0.8-0.7c0-0.2,0.1-0.4,0.2-0.5l0.6,0.5L213.3,170.1z M218.2,168.4c0.1-0.1,0.2-0.1,0.4-0.1c0.4,0,0.8,0.3,0.8,0.7
		s-0.4,0.7-0.8,0.7c-0.4,0-0.8-0.3-0.8-0.7c0-0.2,0.1-0.4,0.2-0.5l0.6,0.5L218.2,168.4z M221,163.5c0-0.4,0.4-0.7,0.8-0.7
		c0.4,0,0.8,0.3,0.8,0.7c0,0.4-0.4,0.7-0.8,0.7C221.3,164.3,221,164,221,163.5C221,163.5,221,163.5,221,163.5l0.3,0L221,163.5z
		 M217.4,158.8c-0.1-0.1-0.2-0.3-0.2-0.5c0-0.4,0.4-0.7,0.8-0.7c0.4,0,0.8,0.3,0.8,0.7c0,0.4-0.4,0.7-0.8,0.7c-0.1,0-0.3,0-0.4-0.1
		l0.4-0.6L217.4,158.8z M213.2,156.6c-0.1-0.1-0.2-0.3-0.2-0.5c0-0.4,0.4-0.7,0.8-0.7c0.4,0,0.8,0.3,0.8,0.7s-0.4,0.7-0.8,0.7
		c-0.2,0-0.3-0.1-0.5-0.2l0.5-0.6L213.2,156.6z"/>
	<path class="st0" d="M214.1,236.1c9.6-2,18.3-7.9,23.6-17.1c5.2-9.1,6-19.5,3.1-28.7c7.2-6.5,11.7-15.9,11.8-26.4
		c0-10.6-4.6-20.1-11.8-26.7c3-9.3,2.3-19.9-3-29c-5.2-9.1-13.8-15-23.3-17c-0.1-0.5-0.2-1.1-0.4-1.6c-2.5-9.2-8.4-17-16.6-21.8
		c-9.1-5.3-19.7-6.1-29-3.1c-6.6-7.3-16.1-11.9-26.6-11.9c-10.5,0-19.9,4.5-26.4,11.7c-9.3-3-19.7-2.2-28.7,3
		c-9.2,5.3-15.1,14-17.2,23.6c-9.6,2-18.3,8-23.6,17.1c-5.2,9.1-6,19.5-3.1,28.7c-7.2,6.5-11.7,15.9-11.8,26.4
		c0,10.6,4.6,20.1,11.8,26.7c-3,9.3-2.3,19.9,3,29c5.2,9.1,13.8,14.9,23.3,17c0.1,0.5,0.2,1.1,0.4,1.6c2.5,9.2,8.4,17,16.6,21.8
		c5.5,3.2,11.7,4.9,17.9,4.9c3.1,0,6.2-0.4,9.2-1.2c0.6-0.2,1.3-0.4,1.9-0.6c6.6,7.3,16.1,11.9,26.6,11.9c10.5,0,19.9-4.5,26.4-11.7
		c3.5,1.1,7.2,1.7,11,1.7c6,0,12.2-1.5,17.8-4.7C206.1,254.4,212.1,245.7,214.1,236.1z M235.9,217.9c-4.8,8.3-12.6,13.8-21.3,15.9
		c0.2-1.6,0.4-3.2,0.4-4.8c1.6-0.1,3.3-0.3,4.9-0.8c6.2-1.6,11.3-5.6,14.5-11.1c3.2-5.5,4-12,2.4-18.1c-0.4-1.5-1-3-1.6-4.4
		c1.4-0.8,2.7-1.7,3.9-2.7C241.5,200.2,240.6,209.6,235.9,217.9z M207,234.6c-0.1-2.4-0.5-4.8-1.4-7.1c2.3,0.8,4.7,1.3,7.1,1.4
		c0,1.8-0.2,3.6-0.5,5.3C210.5,234.5,208.7,234.6,207,234.6z M188.9,232.1c5.2,3,10.9,4.6,16.6,4.7c-0.1,1.5-0.3,3.1-0.7,4.6
		c-1.6,5.8-5.3,10.6-10.5,13.6c-5.2,3-11.2,3.8-17,2.2c-1.4-0.4-2.8-0.9-4-1.5c2.8-5.1,4.3-10.9,4.3-17.1c0-0.6-0.5-1.1-1.1-1.1
		c-0.6,0-1.1,0.5-1.1,1.1c0,5.8-1.5,11.2-4.1,16c-2.2-1.4-4.2-3.2-5.8-5.3c0.1-0.9,0.2-1.8,0.2-2.8c0-0.4-0.3-0.7-0.7-0.7
		c-0.4,0-0.7,0.3-0.7,0.7c0,0.3,0,0.6,0,0.9c-0.2-0.2-0.3-0.5-0.5-0.7c-0.2-0.3-0.6-0.5-1-0.3c-0.3,0.2-0.5,0.6-0.3,1
		c0.5,0.8,1,1.6,1.5,2.3c-0.4,2.7-1.2,5.2-2.5,7.5c-4.6-2.8-8.6-6.8-11.5-11.8c-0.3-0.5-1-0.7-1.5-0.4c-0.5,0.3-0.7,1-0.4,1.5
		c3.1,5.3,7.3,9.6,12.2,12.6c-4,6-10.9,9.9-18.6,9.9c-7.8,0-14.7-4-18.7-10.1c4.9-3.1,9-7.3,12-12.4c0.3-0.5,0.1-1.2-0.4-1.5
		c-0.5-0.3-1.2-0.1-1.5,0.4c-2.8,4.8-6.6,8.8-11.2,11.6c-1.2-2.4-2.1-5-2.4-7.7c0.4-0.6,0.8-1.2,1.2-1.9c0.2-0.3,0.1-0.8-0.3-1
		c-0.3-0.2-0.8-0.1-1,0.3c0,0.1-0.1,0.1-0.1,0.2c0-0.1,0-0.1,0-0.2c0-0.4-0.3-0.7-0.7-0.7c-0.4,0-0.7,0.3-0.7,0.7
		c0,0.7,0,1.5,0.1,2.2c-1.6,2.2-3.6,4.1-5.9,5.5c-2.5-4.7-3.9-10-3.9-15.7c0-0.6-0.5-1.1-1.1-1.1c-0.6,0-1.1,0.5-1.1,1.1
		c0,6.1,1.5,11.8,4.2,16.8c-1.4,0.7-2.8,1.2-4.3,1.6c-5.8,1.5-11.8,0.7-17-2.3c-5.2-3-8.9-7.8-10.4-13.6c-0.4-1.4-0.6-2.8-0.7-4.3
		c5.8-0.1,11.6-1.7,16.9-4.8c0.5-0.3,0.7-1,0.4-1.5c-0.3-0.5-1-0.7-1.5-0.4c-5,2.9-10.5,4.3-15.9,4.5c0.1-2.6,0.6-5.2,1.6-7.7
		c0.8-0.4,1.7-0.8,2.5-1.2c0.3-0.2,0.5-0.6,0.3-1c-0.2-0.3-0.6-0.5-1-0.3c-0.3,0.1-0.5,0.3-0.8,0.4c0.1-0.3,0.3-0.5,0.4-0.8
		c0.2-0.3,0.1-0.8-0.3-1c-0.3-0.2-0.8-0.1-1,0.3c-0.5,0.8-0.9,1.6-1.3,2.5c-2.5,1-5.1,1.5-7.7,1.6c0.2-5.4,1.6-10.9,4.5-15.9
		c0.3-0.5,0.1-1.2-0.4-1.5c-0.5-0.3-1.2-0.1-1.5,0.4c-3,5.2-4.7,11-4.8,16.9c-7.2-0.5-14-4.5-17.8-11.1c-3.9-6.8-3.9-14.8-0.6-21.3
		c5,2.7,10.7,4.2,16.7,4.2h0c0.6,0,1.1-0.5,1.1-1.1c0-0.6-0.5-1.1-1.1-1.1c-5.7,0-11-1.4-15.7-3.9c1.4-2.2,3.3-4.3,5.5-5.9
		c0.7,0.1,1.5,0.1,2.2,0.1c0,0,0,0,0,0c0.4,0,0.7-0.3,0.7-0.7c0-0.4-0.3-0.7-0.7-0.7c-0.1,0-0.1,0-0.2,0c0.1,0,0.1-0.1,0.2-0.1
		c0.3-0.2,0.5-0.6,0.3-1c-0.2-0.3-0.6-0.5-1-0.3c-0.6,0.4-1.3,0.8-1.9,1.2c-2.8-0.3-5.4-1.2-7.7-2.4c2.8-4.5,6.7-8.4,11.6-11.2
		c0.5-0.3,0.7-1,0.4-1.5c-0.3-0.5-1-0.7-1.5-0.4c-5.2,3-9.4,7.2-12.4,12c-6.1-4-10.1-10.9-10.1-18.8c0-6,2.4-11.6,6.6-15.8
		c1-1,2.1-1.9,3.3-2.7c3,4.9,7.3,9.2,12.6,12.3c0.2,0.1,0.4,0.1,0.5,0.1c0.4,0,0.7-0.2,0.9-0.5c0.3-0.5,0.1-1.2-0.4-1.5
		c-5-2.9-9-6.9-11.8-11.5c2.3-1.2,4.9-2.1,7.5-2.4c0.7,0.5,1.5,1.1,2.3,1.5c0.1,0.1,0.2,0.1,0.4,0.1c0.3,0,0.5-0.1,0.6-0.4
		c0.2-0.3,0.1-0.8-0.3-1c-0.2-0.1-0.5-0.3-0.7-0.5c0.3,0,0.5,0,0.8,0c0,0,0,0,0.1,0c0.4,0,0.7-0.3,0.7-0.7c0-0.4-0.4-0.7-0.8-0.7
		c-0.9,0-1.8,0.1-2.7,0.2c-2.1-1.6-3.9-3.6-5.3-5.8c4.7-2.6,10.2-4,15.9-4c0,0,0.1,0,0.1,0c0.6,0,1.1-0.5,1.1-1.1
		c0-0.6-0.5-1.1-1.1-1.1c0,0-0.1,0-0.1,0c-6.1,0-11.9,1.6-17,4.3c-0.6-1.3-1.1-2.6-1.5-4c-1.5-5.8-0.8-11.8,2.2-17
		c3.9-6.8,10.9-10.7,18.2-11.2c0.2,5.7,1.7,11.4,4.7,16.6c0.2,0.4,0.6,0.5,1,0.5c0.2,0,0.4,0,0.5-0.1c0.5-0.3,0.7-1,0.4-1.5
		c-2.8-4.9-4.2-10.2-4.4-15.5c2.7,0.1,5.3,0.7,7.9,1.8c0.3,0.7,0.6,1.3,1,2c0.1,0.2,0.4,0.4,0.6,0.4c0.1,0,0.2,0,0.4-0.1
		c0.3-0.2,0.5-0.6,0.3-1c0-0.1-0.1-0.1-0.1-0.2c0.1,0,0.1,0.1,0.2,0.1c0.3,0.2,0.8,0.1,1-0.3c0.2-0.3,0.1-0.8-0.3-1
		c-0.6-0.4-1.3-0.7-2-1c-1.1-2.5-1.7-5.2-1.8-7.9c5.3,0.2,10.6,1.6,15.5,4.5c0.5,0.3,1.2,0.1,1.5-0.4c0.3-0.5,0.1-1.2-0.4-1.5
		c-5.2-3-10.9-4.6-16.6-4.8c0.1-1.5,0.3-3.1,0.7-4.6c1.6-5.8,5.3-10.6,10.5-13.6c5.2-3,11.2-3.8,17-2.2c1.4,0.4,2.8,0.9,4,1.5
		c-2.8,5.1-4.3,10.9-4.3,17.1c0,0.6,0.5,1.1,1.1,1.1c0.6,0,1.1-0.5,1.1-1.1c0-5.8,1.5-11.2,4.1-16c2.2,1.4,4.2,3.2,5.8,5.3
		c-0.1,0.9-0.2,1.8-0.2,2.8c0,0.4,0.3,0.7,0.7,0.7c0.4,0,0.7-0.3,0.7-0.7c0-0.3,0-0.6,0-0.9c0.2,0.2,0.3,0.5,0.5,0.7
		c0.2,0.4,0.7,0.5,1,0.3c0.3-0.2,0.5-0.6,0.3-1c-0.5-0.8-1-1.6-1.5-2.3c0.4-2.7,1.2-5.2,2.5-7.5c4.6,2.8,8.6,6.8,11.5,11.8
		c0.3,0.5,1,0.7,1.5,0.4c0.5-0.3,0.7-1,0.4-1.5c-3.1-5.3-7.3-9.6-12.2-12.6c4-6,10.9-9.9,18.6-9.9c7.8,0,14.7,4,18.7,10.2
		c-4.8,3-9,7.2-12,12.4c-0.3,0.5-0.1,1.2,0.4,1.5c0.5,0.3,1.2,0.1,1.5-0.4c2.8-4.8,6.6-8.8,11.2-11.6c1.2,2.4,2.1,5,2.4,7.7
		c-0.4,0.6-0.8,1.2-1.2,1.9c-0.2,0.3-0.1,0.8,0.3,1c0.3,0.2,0.8,0.1,1-0.3c0-0.1,0.1-0.1,0.1-0.2c0,0.1,0,0.1,0,0.2
		c0,0.4,0.3,0.7,0.7,0.7c0.4,0,0.7-0.3,0.7-0.7c0-0.7,0-1.5-0.1-2.2c1.6-2.2,3.6-4.1,5.9-5.5c2.5,4.7,3.9,10,3.9,15.7
		c0,0.6,0.5,1.1,1.1,1.1c0.6,0,1.1-0.5,1.1-1.1c0-6.1-1.5-11.8-4.2-16.8c1.4-0.7,2.8-1.2,4.3-1.6c5.8-1.5,11.8-0.7,17,2.3
		c5.2,3,8.9,7.8,10.4,13.6c0.4,1.4,0.6,2.8,0.7,4.3c-5.8,0.1-11.6,1.7-16.9,4.8c-0.5,0.3-0.7,1-0.4,1.5c0.3,0.5,1,0.7,1.5,0.4
		c5-2.9,10.5-4.3,15.9-4.5c-0.1,2.6-0.6,5.2-1.6,7.7c-0.8,0.4-1.7,0.8-2.5,1.2c-0.3,0.2-0.5,0.6-0.3,1c0.2,0.3,0.6,0.5,1,0.3
		c0.2-0.1,0.5-0.3,0.8-0.4c-0.1,0.2-0.2,0.5-0.4,0.8c-0.2,0.3-0.1,0.8,0.3,1c0.1,0.1,0.2,0.1,0.4,0.1c0.3,0,0.5-0.1,0.6-0.4
		c0.5-0.8,0.9-1.6,1.2-2.5c2.5-1,5.1-1.6,7.7-1.6c-0.2,5.4-1.6,10.9-4.5,15.9c-0.3,0.5-0.1,1.2,0.4,1.5c0.2,0.1,0.4,0.1,0.5,0.1
		c0.4,0,0.7-0.2,0.9-0.5c3-5.2,4.7-11,4.8-16.9c1.4,0.1,2.8,0.3,4.2,0.7c5.8,1.5,10.6,5.3,13.6,10.4c3,5.2,3.8,11.2,2.2,17
		c-0.4,1.5-1,3-1.7,4.3c-5-2.7-10.7-4.2-16.7-4.2c0,0,0,0,0,0c-0.6,0-1.1,0.5-1.1,1.1c0,0.6,0.5,1.1,1.1,1.1c5.7,0,11,1.4,15.7,3.9
		c-1.4,2.3-3.3,4.3-5.5,5.9c-0.7-0.1-1.5-0.1-2.2-0.1c-0.4,0-0.7,0.3-0.7,0.7c0,0.4,0.3,0.7,0.7,0.7c0.1,0,0.1,0,0.2,0
		c-0.1,0-0.1,0.1-0.2,0.1c-0.3,0.2-0.5,0.6-0.3,1c0.1,0.2,0.4,0.4,0.6,0.4c0.1,0,0.2,0,0.4-0.1c0.6-0.4,1.3-0.8,1.9-1.2
		c2.8,0.3,5.4,1.2,7.7,2.4c-2.8,4.5-6.7,8.4-11.6,11.2c-0.5,0.3-0.7,1-0.4,1.5c0.2,0.4,0.6,0.5,0.9,0.5c0.2,0,0.4,0,0.5-0.1
		c5.2-3,9.4-7.2,12.4-12c6.1,4,10.1,10.9,10.1,18.8c0,6-2.4,11.6-6.6,15.8c-1,1-2.1,1.9-3.3,2.7c-3-4.9-7.3-9.2-12.6-12.3
		c-0.5-0.3-1.2-0.1-1.5,0.4c-0.3,0.5-0.1,1.2,0.4,1.5c5,2.9,9,6.9,11.8,11.5c-2.3,1.3-4.9,2.1-7.5,2.4c-0.7-0.5-1.5-1.1-2.3-1.5
		c-0.4-0.2-0.8-0.1-1,0.3c-0.2,0.3-0.1,0.8,0.3,1c0.3,0.1,0.5,0.3,0.7,0.5c-0.3,0-0.5,0-0.8,0c0,0,0,0-0.1,0c-0.4,0-0.7,0.3-0.7,0.7
		c0,0.4,0.4,0.7,0.8,0.7c0.9,0,1.8-0.1,2.7-0.2c2.1,1.7,3.9,3.6,5.2,5.9c-4.7,2.6-10.2,4-15.9,4c0,0-0.1,0-0.1,0
		c-0.6,0-1.1,0.5-1.1,1.1c0,0.6,0.5,1.1,1.1,1.1c0,0,0.1,0,0.1,0c6.1,0,11.9-1.6,17-4.3c3.2,6.5,3.1,14.3-0.7,21
		c-3,5.2-7.8,8.9-13.6,10.4c-1.5,0.4-3,0.6-4.6,0.7c-0.2-5.7-1.7-11.4-4.7-16.6c-0.3-0.5-1-0.7-1.5-0.4c-0.5,0.3-0.7,1-0.4,1.5
		c2.8,4.9,4.2,10.2,4.4,15.5c-2.7-0.1-5.4-0.7-7.9-1.8c-0.3-0.7-0.6-1.3-1-2c-0.2-0.3-0.6-0.5-1-0.3c-0.3,0.2-0.5,0.6-0.3,1
		c0,0.1,0.1,0.1,0.1,0.2c-0.1,0-0.1-0.1-0.2-0.1c-0.4-0.2-0.8-0.1-1,0.3c-0.2,0.3-0.1,0.8,0.3,1c0.6,0.4,1.3,0.7,2,1
		c1.1,2.5,1.7,5.2,1.8,7.9c-5.3-0.2-10.6-1.6-15.5-4.5c-0.5-0.3-1.2-0.1-1.5,0.4C188.2,231.1,188.4,231.8,188.9,232.1z M170.6,255.8
		c-0.9,1.5-1.9,2.9-3.1,4.3c-1.6-0.6-3.2-1.3-4.8-2.2c1.1-2.1,1.9-4.3,2.4-6.7C166.7,253.1,168.6,254.6,170.6,255.8z M120.7,257.7
		c-1.5,0.9-3.1,1.6-4.8,2.2c-1.1-1.4-2.1-2.8-3-4.4c2.1-1.3,3.9-2.9,5.5-4.8C118.7,253.2,119.6,255.5,120.7,257.7z M71,234.1
		c-0.3-1.7-0.5-3.5-0.5-5.2c2.3-0.1,4.7-0.5,7-1.2c-0.8,2.3-1.2,4.6-1.3,7C74.5,234.6,72.8,234.4,71,234.1z M49.7,192.3
		c-1.5-0.9-3-1.9-4.3-3c0.6-1.7,1.4-3.3,2.3-4.8c2.2,1.1,4.5,1.9,6.9,2.4C52.6,188.4,51,190.2,49.7,192.3z M47.5,142.3
		c-0.9-1.5-1.6-3.1-2.2-4.8c1.3-1.1,2.8-2.1,4.3-3c1.2,2,2.8,3.8,4.6,5.4C51.8,140.4,49.5,141.2,47.5,142.3z M76.6,92.5
		c0.1,2.4,0.5,4.8,1.4,7.1c-2.3-0.8-4.7-1.3-7.1-1.4c0-1.8,0.2-3.6,0.5-5.3C73.1,92.6,74.8,92.5,76.6,92.5z M113,71.3
		c0.9-1.5,1.9-2.9,3.1-4.3c1.6,0.6,3.2,1.3,4.8,2.2c-1.1,2.1-1.9,4.3-2.4,6.7C116.8,74,115,72.5,113,71.3z M162.9,69.4
		c1.5-0.9,3.1-1.6,4.8-2.2c1.1,1.4,2.1,2.8,3.1,4.4c-2,1.3-3.9,2.9-5.5,4.8C164.8,73.9,164,71.6,162.9,69.4z M212.5,93
		c0.3,1.7,0.5,3.5,0.5,5.2c-2.4,0.1-4.7,0.5-7,1.2c0.8-2.3,1.2-4.6,1.2-7C209.1,92.5,210.8,92.7,212.5,93z M233.8,134.8
		c1.5,0.9,3,1.9,4.3,3c-0.6,1.7-1.4,3.3-2.3,4.8c-2.2-1.1-4.5-1.9-6.9-2.4C230.9,138.7,232.6,136.9,233.8,134.8z M236.1,184.8
		c0.9,1.5,1.6,3.1,2.2,4.8c-1.3,1.1-2.8,2.1-4.3,3c-1.2-2-2.8-3.8-4.6-5.4C231.8,186.7,234,185.9,236.1,184.8z M250.4,163.8
		c0,9.5-4,18.1-10.4,24.2c-0.6-1.5-1.3-2.9-2-4.3c1.3-0.9,2.5-1.9,3.6-3c4.5-4.5,7-10.5,7-16.9c0-6.4-2.5-12.4-6.9-16.9
		c-1.2-1.2-2.5-2.2-3.9-3.2c0.8-1.4,1.5-2.9,2.1-4.4C246.4,145.5,250.4,154.2,250.4,163.8z M235.9,109.2c4.8,8.3,5.6,17.8,3.1,26.4
		c-1.3-1-2.6-1.9-4-2.7c0.7-1.5,1.4-3,1.8-4.7c1.6-6.2,0.8-12.6-2.4-18.1c-3.2-5.5-8.3-9.5-14.5-11.1c-1.5-0.4-3.1-0.7-4.6-0.8
		c0-1.6-0.2-3.2-0.4-4.8C223.4,95.6,231.1,101,235.9,109.2z M170.8,66.2c8.7-2.3,17.7-1.1,25.5,3.4c8.2,4.8,13.6,12.5,15.7,21.1
		c-1.6-0.2-3.2-0.4-4.8-0.4c-0.5-7.7-4.7-15-11.8-19.1c-7.2-4.2-15.8-4.2-22.8-0.6c-0.8-1.4-1.7-2.8-2.7-4
		C170.2,66.4,170.5,66.3,170.8,66.2z M141.8,54.9c9.6,0,18.3,4.1,24.4,10.5c-1.5,0.6-3,1.3-4.4,2.1c-4.3-6.5-11.6-10.9-20-10.9
		c-8.3,0-15.6,4.2-19.8,10.6c-1.4-0.8-2.9-1.5-4.3-2.1C123.7,58.9,132.3,54.9,141.8,54.9z M87.7,69.3c8.2-4.7,17.6-5.6,26.1-3.1
		c-1,1.2-1.9,2.6-2.7,3.9c-1.4-0.7-2.9-1.2-4.4-1.7c-6.2-1.7-12.6-0.8-18.1,2.3C81.3,75,77.1,82.5,76.6,90.3c-1.6,0-3.2,0.1-4.9,0.4
		C73.9,82,79.4,74.1,87.7,69.3z M47.7,109.2c4.8-8.3,12.6-13.8,21.3-15.9c-0.2,1.6-0.4,3.2-0.4,4.9c-7.8,0.4-15.2,4.6-19.4,11.9
		c-3.2,5.5-4,12-2.4,18.1c0.4,1.5,1,3,1.6,4.4c-1.4,0.8-2.7,1.7-3.9,2.7C42.1,126.9,43,117.5,47.7,109.2z M33.2,163.3
		c0-9.5,4-18.1,10.4-24.2c0.6,1.5,1.3,2.9,2,4.3c-1.3,0.9-2.5,1.9-3.6,3c-4.5,4.5-7,10.5-7,16.9c0,6.4,2.5,12.4,6.9,16.9
		c1.2,1.2,2.5,2.2,3.9,3.2c-0.8,1.4-1.5,2.9-2.1,4.4C37.2,181.6,33.1,172.9,33.2,163.3z M47.7,217.9c-4.8-8.3-5.6-17.8-3.1-26.4
		c1.3,1,2.6,1.9,4,2.7c-0.7,1.5-1.4,3-1.8,4.7c-1.6,6.2-0.8,12.6,2.4,18.1c4.1,7.1,11.4,11.3,19.1,11.9c0,1.6,0.2,3.2,0.4,4.8
		C60.2,231.5,52.5,226.1,47.7,217.9z M112.7,260.9c-8.7,2.3-17.7,1.1-25.5-3.4c-8.2-4.8-13.6-12.5-15.7-21.1
		c1.6,0.2,3.2,0.4,4.8,0.4c0.5,7.7,4.7,15,11.8,19.1c3.7,2.1,7.8,3.2,11.9,3.2c2.1,0,4.1-0.3,6.2-0.8c1.6-0.4,3.2-1,4.7-1.8
		c0.8,1.4,1.7,2.8,2.7,4C113.3,260.7,113,260.8,112.7,260.9z M141.8,272.2c-9.6,0-18.3-4-24.4-10.5c1.5-0.6,3-1.3,4.4-2.1
		c4.3,6.5,11.6,10.9,20,10.9c8.3,0,15.6-4.2,19.8-10.6c1.4,0.8,2.9,1.5,4.3,2.1C159.9,268.2,151.3,272.2,141.8,272.2z M195.9,257.7
		c-8.2,4.7-17.6,5.6-26.1,3.1c1-1.2,1.9-2.6,2.7-3.9c1.4,0.7,2.9,1.2,4.4,1.7c2.1,0.6,4.2,0.8,6.3,0.8c4.1,0,8.2-1.1,11.8-3.2
		c7.3-4.2,11.5-11.6,11.9-19.4c1.6,0,3.2-0.1,4.9-0.4C209.7,245.1,204.2,253,195.9,257.7z"/>
	<path class="st0" d="M88.7,63.2c0.5,0,1-0.4,1-1c0-2.1,0.3-4.2,0.9-6.2c0,0,0,0,0,0c0.2-0.5-0.1-1-0.7-1.2c-0.4-0.1-0.7,0-1,0.3
		c-0.1,0.1-0.2,0.2-0.2,0.4c-0.6,2.2-1,4.4-1,6.8C87.8,62.8,88.2,63.2,88.7,63.2z"/>
	<path class="st0" d="M96.4,45.6c0.3,0,0.5-0.1,0.7-0.3c2.6-2.7,5.8-5.4,10-8.1c0.3-0.2,0.4-0.5,0.4-0.8c0-0.2-0.1-0.4-0.2-0.5
		c-0.3-0.4-0.9-0.6-1.3-0.3c-4.3,2.8-7.6,5.6-10.3,8.4c-0.2,0.2-0.3,0.4-0.3,0.7c0,0.3,0.1,0.5,0.3,0.7
		C95.9,45.5,96.1,45.6,96.4,45.6z"/>
	<path class="st0" d="M140.2,15.8c0.6-0.8,1.1-1.5,1.5-2.3c0.3,0.8,0.8,1.6,1.3,2.4c0,0,0,0,0,0c0.2,0.3,0.5,0.4,0.8,0.4
		c0.2,0,0.4-0.1,0.5-0.2c0.2-0.1,0.4-0.4,0.4-0.6c0-0.2,0-0.5-0.1-0.7c-1.2-1.8-1.8-3.7-1.8-5.6c0-0.5-0.4-1-1-1c-0.5,0-1,0.4-1,1
		c0,1.8-0.7,3.6-2.1,5.4c-0.3,0.4-0.3,1,0.2,1.3C139.3,16.3,139.9,16.2,140.2,15.8z"/>
	<path class="st0" d="M193,56C193,56,193,56,193,56c0.6,2,0.9,4.1,0.9,6.2c0,0.5,0.4,1,1,1c0.5,0,1-0.4,1-1c0-2.3-0.3-4.6-1-6.8
		c0,0,0,0,0,0c0-0.1-0.1-0.2-0.2-0.3c0,0,0,0,0,0c0,0-0.1,0-0.1-0.1c-0.1-0.1-0.1-0.1-0.2-0.2c-0.2-0.1-0.5-0.2-0.7-0.1
		c-0.1,0-0.2,0.1-0.3,0.2c0,0,0,0,0,0c-0.1,0.1-0.2,0.2-0.2,0.3c0,0,0,0,0,0c0,0.1-0.1,0.2-0.1,0.3c0,0,0,0,0,0c0,0,0,0,0,0.1
		C193,55.8,193,55.9,193,56z"/>
	<path class="st0" d="M187,45.7c0.3,0,0.5-0.1,0.7-0.3c0.2-0.2,0.3-0.4,0.3-0.7c0-0.3-0.1-0.5-0.3-0.7c-2.7-2.7-6.2-5.4-10.6-8.2
		c-0.4-0.3-1.1-0.1-1.3,0.3c-0.1,0.2-0.2,0.3-0.1,0.5c0,0.3,0.2,0.6,0.4,0.8c0,0,0,0,0,0c4.3,2.7,7.6,5.3,10.2,7.9
		C186.5,45.6,186.8,45.7,187,45.7z"/>
	<path class="st0" d="M28,158c-1.8-1.1-3.5-2.4-4.9-3.9c0,0,0,0,0,0c-0.4-0.4-1-0.4-1.4,0c-0.1,0.1-0.2,0.3-0.2,0.5
		c-0.1,0.3,0,0.6,0.2,0.9c1.6,1.6,3.4,3.1,5.4,4.2c0.2,0.1,0.3,0.1,0.5,0.1c0.3,0,0.7-0.2,0.8-0.5C28.6,158.9,28.5,158.3,28,158z"/>
	<path class="st0" d="M17,143.1c-1.1-3.6-1.7-7.7-2-12.7c0-0.5-0.5-0.9-1-0.9c-0.5,0-0.9,0.5-0.9,1c0,0,0,0,0,0
		c0.3,5.1,1,9.4,2.1,13.1c0.1,0.4,0.5,0.7,0.9,0.7c0.1,0,0.2,0,0.3,0C16.9,144.2,17.2,143.7,17,143.1C17,143.2,17,143.1,17,143.1z"
		/>
	<path class="st0" d="M11.2,91.7C11.2,91.7,11.2,91.7,11.2,91.7C11.2,91.7,11.2,91.8,11.2,91.7C11.3,91.8,11.3,91.8,11.2,91.7
		c0.2,0.4,0.5,0.6,0.9,0.6c0.1,0,0.2,0,0.4-0.1c0.1,0,0.2-0.1,0.3-0.2c0,0,0,0,0,0c0.1-0.1,0.1-0.2,0.2-0.3c0,0,0,0,0-0.1
		c0-0.1,0.1-0.2,0.1-0.3c0,0,0,0,0-0.1c0,0,0,0,0,0c0-0.1,0-0.2-0.1-0.4c0,0,0,0,0,0c0,0,0,0,0,0c-0.4-0.9-0.8-1.7-1.2-2.4
		c0.8,0.1,1.7,0.1,2.6,0.1c0,0,0,0,0,0c0,0,0,0,0.1,0c0.1,0,0.2,0,0.3-0.1c0.4-0.1,0.6-0.5,0.6-0.9c0-0.5-0.5-0.9-1-0.9
		c-2.2,0.1-4.1-0.3-5.8-1.2c-0.5-0.3-1-0.1-1.3,0.4c-0.3,0.5-0.1,1,0.4,1.3c0,0,0,0,0,0C9.2,88.1,10.4,89.6,11.2,91.7z"/>
	<path class="st0" d="M61.2,64c-3.7,1-7.7,2.6-12.3,5.1c-0.3,0.2-0.5,0.5-0.5,0.8c0,0.2,0,0.3,0.1,0.5c0.2,0.3,0.5,0.5,0.8,0.5
		c0.2,0,0.3,0,0.5-0.1c4.5-2.4,8.4-4,11.9-4.9c0.4-0.1,0.7-0.5,0.7-0.9c0-0.1,0-0.2,0-0.2C62.3,64.2,61.8,63.9,61.2,64z"/>
	<path class="st0" d="M80.6,67.9c0.3,0,0.7-0.2,0.8-0.5c0.3-0.5,0.1-1-0.4-1.3c-2-1.2-4.1-2-6.3-2.5c0,0,0,0,0,0
		c-0.5-0.1-1,0.2-1.2,0.7c0,0.1,0,0.1,0,0.2c0,0.1,0,0.1,0,0.1c0,0,0,0,0,0c0,0.1,0.1,0.2,0.1,0.3c0,0,0,0,0,0
		c0.1,0.1,0.1,0.2,0.2,0.2c0,0,0,0,0,0c0.1,0.1,0.2,0.1,0.3,0.2c0,0,0,0,0,0c0,0,0,0,0,0c2,0.5,4,1.3,5.8,2.3
		C80.3,67.9,80.4,67.9,80.6,67.9z"/>
	<path class="st0" d="M80.1,259.3c-1.8,1.1-3.8,1.9-5.8,2.3c0,0,0,0,0,0c-0.5,0.1-0.8,0.6-0.7,1.2c0.1,0.4,0.5,0.7,0.9,0.7
		c0.1,0,0.1,0,0.2,0c0,0,0,0,0,0c0,0,0,0,0,0c2.2-0.5,4.3-1.4,6.3-2.5c0.5-0.3,0.6-0.9,0.4-1.3C81.1,259.2,80.6,259.1,80.1,259.3z"
		/>
	<path class="st0" d="M61.8,261.4C61.7,261.4,61.7,261.4,61.8,261.4c-3.6-0.9-7.6-2.4-12-4.6c-0.5-0.2-1.1,0-1.3,0.4
		c-0.1,0.1-0.1,0.3-0.1,0.4c0,0.4,0.2,0.7,0.5,0.9c4.6,2.3,8.7,3.8,12.4,4.7c0.1,0,0.1,0,0.2,0c0.4,0,0.8-0.3,0.9-0.7
		c0.1-0.2,0-0.5-0.1-0.7C62.2,261.6,62,261.5,61.8,261.4z"/>
	<path class="st0" d="M14.6,238.8c-1-0.1-1.9-0.2-2.7-0.1c0.5-0.7,1-1.5,1.4-2.3c0.2-0.4,0.1-1-0.4-1.2c0,0-0.1,0-0.1-0.1
		c-0.4-0.2-0.9-0.1-1.2,0.3c0,0-0.1,0.1-0.1,0.1c-1,2-2.3,3.4-4,4.4c0,0,0,0,0,0c-0.5,0.3-0.6,0.9-0.4,1.3c0.2,0.3,0.5,0.5,0.8,0.5
		c0.2,0,0.3,0,0.5-0.1l0,0c1.6-0.9,3.5-1.2,5.8-0.9c0.5,0.1,1-0.3,1.1-0.8C15.5,239.4,15.1,238.9,14.6,238.8z"/>
	<path class="st0" d="M16.5,182.9c-0.5-0.1-1,0.2-1.2,0.7c-1,3.7-1.6,8-1.8,13.1c0,0,0,0,0,0.1c0,0,0,0,0,0v0c0,0.5,0.4,0.9,0.9,1h0
		c0.5,0,0.9-0.4,1-0.9c0.2-5.1,0.8-9.2,1.7-12.8c0-0.1,0-0.2,0-0.2C17.2,183.4,16.9,183,16.5,182.9z"/>
	<path class="st0" d="M27,167.4c-2,1.2-3.8,2.6-5.3,4.2c0,0,0,0,0,0c0,0,0,0,0,0c0,0,0,0,0,0c-0.2,0.2-0.3,0.4-0.3,0.7
		c0,0.3,0.1,0.5,0.3,0.7c0.2,0.2,0.4,0.3,0.7,0.3c0.3,0,0.5-0.1,0.7-0.3l0,0c0,0,0,0,0,0c1.4-1.5,3.1-2.8,4.9-3.9
		c0.5-0.3,0.6-0.9,0.4-1.3C28.1,167.3,27.5,167.1,27,167.4z"/>
	<path class="st0" d="M194.9,263.9c-0.5,0-1,0.4-1,1c0,2.1-0.3,4.2-0.9,6.2c0,0,0,0,0,0c-0.2,0.5,0.1,1,0.6,1.2c0.1,0,0.1,0,0.2,0
		c0,0,0.1,0,0.1,0c0.1,0,0.2,0,0.3,0c0.3-0.1,0.5-0.3,0.6-0.6c0,0,0,0,0,0c0,0,0,0,0,0c0.6-2.2,1-4.4,1-6.8
		C195.8,264.3,195.4,263.9,194.9,263.9z"/>
	<path class="st0" d="M186.5,281.8c-2.6,2.7-5.8,5.4-10,8.1c-0.3,0.2-0.4,0.5-0.4,0.8c0,0.2,0.1,0.4,0.2,0.5
		c0.2,0.3,0.5,0.4,0.8,0.4c0.2,0,0.4-0.1,0.5-0.2c4.3-2.8,7.6-5.6,10.3-8.4c0.4-0.4,0.4-1,0-1.4
		C187.5,281.4,186.9,281.4,186.5,281.8z"/>
	<path class="st0" d="M143.4,311.3c-0.6,0.8-1.1,1.5-1.5,2.3c-0.3-0.8-0.8-1.6-1.3-2.4c-0.3-0.4-0.9-0.6-1.3-0.3c0,0,0,0,0,0
		c0,0,0,0,0,0c-0.1,0-0.1,0.1-0.2,0.2c0,0-0.1,0.1-0.1,0.1c-0.2,0.3-0.2,0.7,0,1.1c0,0,0,0,0,0c1.2,1.8,1.8,3.7,1.8,5.6
		c0,0.5,0.4,1,1,1c0.5,0,1-0.4,1-1c0-1.8,0.7-3.6,2.1-5.4c0.3-0.4,0.3-1-0.2-1.3C144.3,310.8,143.7,310.9,143.4,311.3z"/>
	<path class="st0" d="M95.9,281.7c-0.2,0.2-0.3,0.4-0.3,0.7c0,0.3,0.1,0.5,0.3,0.7c2.7,2.7,6.1,5.4,10.5,8.1l0,0c0,0,0,0,0,0h0
		c0.2,0.1,0.3,0.1,0.5,0.1c0.3,0,0.6-0.2,0.8-0.4c0.1-0.2,0.2-0.3,0.2-0.5c0-0.3-0.2-0.6-0.4-0.8c-4.3-2.7-7.6-5.3-10.2-7.9
		C96.9,281.3,96.2,281.3,95.9,281.7z"/>
	<path class="st0" d="M90.6,271.1C90.6,271.1,90.6,271.1,90.6,271.1L90.6,271.1C90.6,271.1,90.6,271.1,90.6,271.1
		c-0.6-2-0.9-4.1-0.9-6.2c0-0.5-0.4-1-1-1c-0.5,0-1,0.4-1,1c0,2.3,0.3,4.6,1,6.8c0,0,0,0,0,0c0,0,0,0,0,0c0,0,0,0,0,0
		c0.1,0.4,0.5,0.7,0.9,0.7c0.1,0,0.2,0,0.3,0c0.1,0,0.2-0.1,0.3-0.2c0,0,0,0,0,0c0.1-0.1,0.1-0.1,0.2-0.2c0,0,0,0,0-0.1
		c0-0.1,0.1-0.2,0.1-0.3c0,0,0-0.1,0-0.1c0,0,0,0,0-0.1C90.6,271.3,90.6,271.2,90.6,271.1z"/>
	<path class="st0" d="M283,243.8C283,243.8,283,243.8,283,243.8c-6.7-3.9-6.4-16.3-6.1-30.7c0.1-4.1,0.2-8.3,0.1-12.4c0,0,0,0,0,0
		c0,0,0,0,0,0c-0.2-14.5-2.3-28.8-12.8-37.1c10.5-8.4,12.1-22.8,12-37.2c0,0,0,0,0,0s0,0,0,0c0-3.5-0.1-6.9-0.3-10.3
		c-0.5-14.5-1-28.2,7-32.8c0.5-0.3,0.7-1,0.4-1.5c-0.3-0.5-1-0.7-1.5-0.4c-6.7,3.9-17.3-2.6-29.7-10.1c-3.5-2.1-7.1-4.3-10.7-6.3
		c0,0,0,0,0,0c0,0,0,0,0,0c-12.7-7.1-26.1-12.4-38.5-7.5c-2-13.3-13.7-21.9-26.2-29c0,0,0,0,0,0s0,0,0,0c-3-1.7-6-3.3-9-4.9
		c-12.8-6.8-24.9-13.3-24.9-22.4c0-0.6-0.5-1.1-1.1-1.1c-0.6,0-1.1,0.5-1.1,1.1c0,7.7-10.9,13.7-23.6,20.6c-3.6,2-7.2,4-10.8,6.1
		c0,0,0,0,0,0c0,0,0,0,0,0c-12.5,7.4-23.8,16.4-25.7,29.6c-12.5-4.9-25.8,0.9-38.3,8.2c0,0,0,0,0,0s0,0,0,0c-3,1.7-5.9,3.6-8.8,5.4
		C21.2,78.7,9.6,85.9,1.6,81.4l0,0c-0.5-0.3-1.2-0.1-1.5,0.4C-0.2,82.3,0,83,0.5,83.3c0,0,0,0,0,0C7.2,87.1,7,99.6,6.6,114
		c-0.1,4.1-0.2,8.3-0.1,12.4c0,0,0,0,0,0c0,0,0,0,0,0c0.2,14.5,2.3,28.8,12.8,37.1c-10.5,8.4-12.1,22.8-12,37.2c0,0,0,0,0,0
		c0,0,0,0,0,0c0,3.4,0.1,6.9,0.3,10.3c0.5,14.5,1,28.2-7,32.8c-0.5,0.3-0.7,1-0.4,1.5c0.3,0.5,1,0.7,1.5,0.4
		c6.7-3.9,17.3,2.6,29.7,10.1c3.5,2.1,7.1,4.3,10.7,6.3c0,0,0,0,0,0c0,0,0.1,0,0.1,0c9.2,5.2,18.8,9.4,28.2,9.4
		c3.5,0,6.9-0.6,10.3-1.9c2,13.3,13.7,21.9,26.2,29c0,0,0,0,0,0c0,0,0,0,0,0c3,1.7,6,3.3,9,4.9c12.8,6.8,24.9,13.3,24.9,22.4
		c0,0.6,0.5,1.1,1.1,1.1c0.6,0,1.1-0.5,1.1-1.1c0-7.7,10.9-13.7,23.6-20.6c3.6-2,7.2-4,10.8-6.1c0,0,0,0,0,0c0,0,0,0,0,0
		c12.5-7.4,23.8-16.4,25.7-29.6c3.2,1.3,6.5,1.8,9.8,1.8c9.5,0,19.2-4.6,28.5-10c0,0,0,0,0,0c0,0,0,0,0,0c3-1.7,5.9-3.6,8.8-5.4
		c12.3-7.7,23.9-14.9,31.8-10.4c0,0,0,0,0,0c0.5,0.3,1.2,0.1,1.5-0.4C283.7,244.8,283.5,244.1,283,243.8z M274.8,211.3
		c-1.3-0.6-2.7-0.7-4.1-0.5c0-0.4,0-0.7,0-1.1v0c0-0.5-0.4-0.9-0.9-1h0c-0.5,0-0.9,0.4-1,0.9c0,0.6,0,1.1,0,1.7
		c-1.7,0.6-3.5,1.6-5.3,2.9c0-0.2,0-0.5,0-0.7c0-2.2,0.1-4.5,0.1-6.7c4-2.8,7.9-5,11.4-5.1C274.9,204.9,274.8,208.1,274.8,211.3z
		 M257.5,218.7c-4.2,3.3-8.1,6.4-10,5.3c0,0,0,0,0,0c-0.2-0.1-0.4,0-0.5,0.1c-0.1,0.2,0,0.4,0.1,0.5c2.3,1.3,1.4,6.5,0.6,12.1
		c-0.2,1.3-0.4,2.5-0.6,3.8c-1.2,0.7-2.4,1.5-3.6,2.2c-0.9,0.5-1.8,1.1-2.6,1.6c0.3-2.1,0.7-4.3,1-6.4c1.2-6.9,2.3-13.1,0.7-16.6
		c3.4-0.7,7.7-4.2,12.9-8.4c2.1-1.7,4.3-3.5,6.5-5.1c0,1.9-0.1,3.7-0.1,5.5c0,0.6,0,1.3,0,1.9C260.3,216.4,258.9,217.6,257.5,218.7z
		 M261.8,216.3c-0.1,7.5,0,14.1,2.6,17.9c-4.8-0.6-10.4,2.2-16.5,5.8c0.2-1.1,0.3-2.1,0.5-3.2c0.8-5.1,1.5-9.6,0.1-11.9
		c2.4-0.1,5.7-2.7,9.5-5.7C259.2,218.3,260.5,217.3,261.8,216.3z M241.5,89.9c-0.4-2.7-0.9-5.5-1.2-8.2c1.6,0.9,3.2,1.9,4.8,2.9
		c0.5,0.3,1.1,0.7,1.6,1c0.2,1.8,0.5,3.7,0.7,5.4c0.8,5.3,1.5,10.2-0.4,11.3c-0.2,0.1-0.2,0.3-0.1,0.5c0.1,0.2,0.3,0.2,0.5,0.1
		c2.3-1.3,6.4,2,10.7,5.5c1,0.8,2,1.6,3,2.4c0,1.4,0.1,2.8,0.1,4.2c0,1,0.1,2.1,0.1,3.1c-1.7-1.3-3.4-2.7-5-4.1
		c-5.4-4.5-10.2-8.5-14-8.9C243.5,102,242.6,96.4,241.5,89.9z M241.3,67.3c2.8,1.6,5.6,3.3,8.3,4.9c-1.2,0.8-2,1.9-2.5,3.3
		c-0.3-0.2-0.6-0.4-1-0.6c-0.4-0.3-1.1-0.1-1.3,0.3c-0.1,0.1-0.1,0.3-0.1,0.5c0,0.3,0.2,0.6,0.5,0.8c0.5,0.3,1,0.6,1.4,0.9
		c-0.3,1.8-0.3,3.9-0.2,6c-0.2-0.1-0.4-0.3-0.6-0.4c-1.9-1.1-3.8-2.3-5.8-3.5C239.6,74.9,239.7,70.4,241.3,67.3z M248.1,90.8
		c-0.2-1.6-0.5-3.2-0.7-4.8c6.5,3.9,12.2,7,16.8,6.7c-2.9,3.8-3.3,10.1-3.2,17.2c-0.9-0.7-1.7-1.3-2.5-2c-4-3.3-7.6-6.1-10.2-6
		C249.4,99.8,248.8,95.6,248.1,90.8z M262.8,115.1c0-1-0.1-2-0.1-3c1.7,1.3,3.5,2.4,5.2,3.1c0,0.2,0,0.4,0,0.5l0,1.4
		c0,0.5,0.4,0.9,1,0.9c0,0,0,0,0,0c0.5,0,0.9-0.4,0.9-1l0-1.1c0,0,0-0.1,0-0.1c0.7,0.2,1.5,0.3,2.2,0.3c0.6,0,1.2-0.1,1.8-0.3
		c0,0.1,0,0.1,0,0.2c0.1,3,0.2,6,0.2,9c-3.4-0.4-7.3-2.8-11.2-5.7C262.9,118,262.8,116.5,262.8,115.1z M278.2,84.7
		c-5,6.5-4.7,18.2-4.3,30.5c-1.2,0.4-2.6,0.4-4-0.1c-0.1-2.9-0.2-5.6-0.2-8.2c0-1,0-2,0-2.9c0-0.5-0.4-1-0.9-1h0
		c-0.5,0-0.9,0.4-1,0.9c0,0,0,0,0,0c0,0.9,0,1.9,0,2.9c0,2.4,0.1,4.9,0.2,7.5c-1.7-0.8-3.5-2-5.2-3.3c-0.2-8.8,0.2-16.6,5.1-19.4
		c0,0,0,0,0,0c0.4-0.2,0.5-0.7,0.3-1.1c-0.2-0.4-0.7-0.5-1.1-0.3c-4.5,2.6-11.5-1.4-19.7-6.3c-0.2-2.2-0.2-4.3,0.1-6.1
		c0.2,0.1,0.4,0.2,0.6,0.4c3,1.8,5.8,3.5,8.6,5.1c0.1,0.1,0.3,0.1,0.5,0.1c0.4,0,0.7-0.2,0.8-0.5c0.1-0.1,0.1-0.3,0.1-0.5
		c0-0.4-0.2-0.7-0.5-0.9c-2.7-1.5-5.5-3.2-8.5-5c-0.4-0.2-0.7-0.4-1.1-0.7c0.5-1.4,1.3-2.6,2.5-3.3c0.3,0.2,0.5,0.3,0.8,0.5
		C261.6,79.5,270.9,85.1,278.2,84.7z M174.7,29.7c-2.1,2.7-6.1,4.9-10.5,6.8c-1.3-0.7-2.6-1.4-3.9-2.1c-0.9-0.5-1.8-0.9-2.6-1.4
		c2-0.9,3.8-1.8,5.3-2.9c0.2,0.1,0.4,0.2,0.6,0.3l1.1,0.6c0.1,0.1,0.3,0.1,0.4,0.1c0.4,0,0.7-0.2,0.8-0.5c0.1-0.1,0.1-0.3,0.1-0.5
		c0-0.4-0.2-0.7-0.5-0.8c0,0,0,0,0,0c0,0,0,0,0,0l-1-0.5c0,0,0,0,0,0c1-1,1.7-2.2,2-3.5c0,0,0.1,0.1,0.1,0.1
		C169.4,26.8,172.1,28.3,174.7,29.7z M116.9,30.1c0.2,0.3,0.5,0.5,0.8,0.5c0.2,0,0.3,0,0.5-0.1c0,0,0,0,0,0c0.5-0.3,1-0.5,1.5-0.8
		c1.4,1.2,3.2,2.2,5.1,3.2c-0.2,0.1-0.4,0.2-0.6,0.4c-1.9,1.1-3.9,2.1-5.9,3.3c-4.5-2-8.3-4.4-10.1-7.3c2.8-1.6,5.6-3.2,8.4-4.8
		c0.1,1.4,0.7,2.7,1.6,3.8c-0.3,0.2-0.6,0.4-1,0.5c-0.3,0.2-0.5,0.5-0.5,0.8C116.8,29.8,116.9,30,116.9,30.1z M125,34.6
		c0.6-0.3,1.1-0.6,1.6-0.9c1.7,0.7,3.4,1.4,5.1,2.1c4.9,2,9.6,3.8,9.6,6c0,0.2,0.2,0.4,0.4,0.4c0.2,0,0.4-0.2,0.4-0.4
		c0-2.6,4.9-4.5,10.2-6.5c1.2-0.5,2.4-0.9,3.6-1.4c1.2,0.7,2.5,1.3,3.7,2c0.9,0.5,1.8,1,2.7,1.5c-2,0.8-4,1.6-6,2.3
		c-6.6,2.4-12.5,4.6-14.7,7.7c-2.3-2.6-7.5-4.6-13.7-6.9c-2.5-1-5.2-2-7.7-3C121.7,36.4,123.4,35.5,125,34.6z M127.5,33.3
		c6.6-3.6,12.2-7,14.3-11.2c1.9,4.5,7.1,7.9,13.3,11.4c-1,0.4-2,0.8-3,1.2c-4.8,1.9-9.1,3.5-10.3,5.9c-1.3-2-5.2-3.6-9.7-5.3
		C130.5,34.5,128.9,33.9,127.5,33.3z M141.7,6c3.2,7.6,13.4,13.2,24.2,19c-0.2,1.3-1,2.4-2.1,3.5c-3.5-1.9-6.7-3.6-9.7-5.4
		c-0.4-0.3-1.1-0.1-1.3,0.3c-0.3,0.4-0.1,1,0.3,1.3c0,0,0,0,0,0c2.8,1.7,5.9,3.4,9.1,5.1c-1.5,1.1-3.4,2-5.4,2.9
		c-7.7-4.2-14.3-8.4-14.3-14.1c0-0.4-0.3-0.8-0.8-0.8c-0.4,0-0.8,0.3-0.8,0.8c0,5.2-7,9.3-15.3,13.9c-2-0.9-3.8-2-5.2-3.1
		c0.2-0.1,0.4-0.2,0.7-0.4c3.1-1.7,6-3.3,8.6-4.9c0.3-0.2,0.5-0.5,0.5-0.8c0-0.2,0-0.3-0.1-0.5c-0.3-0.4-0.9-0.6-1.3-0.3
		c-2.6,1.6-5.5,3.2-8.6,4.8c-0.4,0.2-0.8,0.4-1.2,0.7c-1-1.1-1.6-2.4-1.6-3.8c0.3-0.1,0.5-0.3,0.8-0.4
		C128.9,17.8,138.4,12.6,141.7,6z M42.4,68.1c1.3,3.2,1.2,7.7,0.6,12.5c-1.3,0.8-2.5,1.5-3.7,2.3c-0.9,0.5-1.7,1.1-2.5,1.6
		c0.2-2.1,0.3-4.2,0.1-6.1c0.2-0.1,0.3-0.2,0.5-0.3l1.1-0.7c0.3-0.2,0.5-0.5,0.5-0.8c0-0.2-0.1-0.3-0.2-0.5
		c-0.3-0.4-0.9-0.6-1.3-0.3l-0.9,0.6c0,0,0,0-0.1,0c-0.4-1.4-1-2.6-2-3.5c0,0,0.1-0.1,0.1-0.1C37.2,71.3,39.8,69.7,42.4,68.1z
		 M41,105.6c-3.4,0.7-7.7,4.2-12.9,8.4c-2.1,1.7-4.3,3.5-6.5,5.2c0-1.9,0.1-3.7,0.1-5.6c0-0.6,0-1.3,0-1.9c1.5-1.1,2.9-2.2,4.4-3.4
		c4.2-3.3,8.1-6.4,10-5.3c0.2,0.1,0.4,0,0.5-0.1c0.1-0.2,0-0.4-0.1-0.5c-2.3-1.3-1.4-6.5-0.6-12.1c0.2-1.3,0.4-2.5,0.6-3.8
		c1.2-0.7,2.4-1.5,3.6-2.2c0.9-0.5,1.8-1.1,2.6-1.6c-0.3,2.1-0.7,4.3-1,6.4C40.5,95.9,39.5,102.1,41,105.6z M8.8,115.8
		c0.9,0.4,1.8,0.6,2.7,0.6c0.5,0,0.9-0.1,1.4-0.1c0,0.4,0,0.7,0,1c0,0,0,0,0,0.1c0,0,0,0,0,0v0c0,0.5,0.4,0.9,0.9,0.9c0,0,0,0,0,0
		c0.5,0,0.9-0.4,1-0.9v0c0-0.6,0-1.1,0-1.7c1.7-0.6,3.5-1.6,5.3-2.9c0,0.2,0,0.5,0,0.7c0,2.2-0.1,4.5-0.1,6.7c-4,2.8-7.9,5-11.4,5.1
		C8.7,122.2,8.7,119,8.8,115.8z M21.8,110.8c0.1-7.5,0-14.1-2.6-17.9c4.8,0.6,10.4-2.2,16.5-5.8c-0.2,1.1-0.3,2.1-0.5,3.2
		c-0.8,5.1-1.5,9.6-0.1,11.9c-2.4,0.1-5.7,2.7-9.5,5.7C24.4,108.8,23.1,109.8,21.8,110.8z M5.3,84.9c8.1,1.1,18.1-5,28.5-11.5
		c1,0.9,1.6,2.1,2,3.5c-3.3,2.1-6.5,4-9.5,5.7c-0.2,0.1-0.4,0.3-0.5,0.6c-0.1,0.2,0,0.5,0.1,0.7c0.2,0.3,0.5,0.5,0.9,0.5
		c0.2,0,0.3,0,0.5-0.1c2.9-1.6,5.9-3.4,9-5.3c0.2,1.9,0,4-0.2,6.1c-7.5,4.6-14.4,8.1-19.3,5.3c-0.4-0.2-0.9-0.1-1.1,0.3
		c-0.2,0.4-0.1,0.9,0.3,1.1c4.5,2.6,4.6,10.7,4.4,20.2c-1.8,1.3-3.6,2.3-5.3,3c0-0.2,0-0.4,0-0.6c0.1-2.7,0.1-5.2,0.1-7.7
		c0-0.8,0-1.6,0-2.3c0-0.5-0.4-0.9-0.9-0.9h0c-0.5,0-0.9,0.4-0.9,0.9v0c0,0.6,0,1.3,0,2.3c0,2.4-0.1,4.9-0.1,7.6c0,0.4,0,0.9,0,1.3
		c-1.5,0.3-2.9,0.2-4.1-0.5c0-0.3,0-0.6,0-0.9C9.1,101.8,9.3,91,5.3,84.9z M42.1,237.2c0.4,2.7,0.9,5.5,1.2,8.2
		c-1.6-0.9-3.2-1.9-4.8-2.9c-0.5-0.3-1.1-0.7-1.6-1c-0.2-1.8-0.5-3.7-0.7-5.4c-0.8-5.3-1.5-10.2,0.4-11.3h0c0.2-0.1,0.2-0.3,0.1-0.5
		c-0.1-0.2-0.3-0.2-0.5-0.1c-2.3,1.3-6.4-2-10.7-5.5c-1-0.8-2-1.6-3-2.4c0-1.4-0.1-2.8-0.1-4.2c0-1-0.1-2.1-0.1-3.1
		c1.7,1.3,3.4,2.7,5,4.1c5.4,4.5,10.2,8.5,14,8.9C40.1,225.1,41,230.7,42.1,237.2z M42.3,259.8c-2.8-1.6-5.6-3.3-8.3-4.9
		c1.2-0.8,2-1.9,2.5-3.3c0.3,0.2,0.6,0.4,1,0.6c0.1,0.1,0.3,0.1,0.5,0.1c0.3,0,0.6-0.2,0.8-0.5c0.1-0.2,0.1-0.3,0.1-0.5
		c0-0.3-0.2-0.6-0.5-0.8c-0.5-0.3-0.9-0.6-1.4-0.9c0.3-1.8,0.3-3.9,0.2-6.1c0.2,0.1,0.4,0.3,0.6,0.4c1.9,1.1,3.8,2.3,5.8,3.4
		C44,252.2,43.8,256.7,42.3,259.8z M35.4,236.3c0.2,1.6,0.5,3.2,0.7,4.8c-6.5-3.9-12.2-7-16.8-6.7c2.9-3.8,3.3-10.1,3.2-17.2
		c0.9,0.7,1.7,1.3,2.5,2c4,3.3,7.6,6.1,10.2,6C34.1,227.3,34.7,231.5,35.4,236.3z M20.8,212c0,1,0.1,2,0.1,3
		c-1.7-1.3-3.5-2.4-5.2-3.2c0-0.2,0-0.4,0-0.6l0-1.3c0-0.5-0.5-1-1-0.9c-0.5,0-0.9,0.4-0.9,1l0,1.2c-1.4-0.4-2.7-0.4-4,0
		c0-0.1,0-0.1,0-0.2c-0.1-3-0.2-6-0.2-9c3.4,0.4,7.3,2.8,11.2,5.7C20.7,209.1,20.7,210.6,20.8,212z M5.4,242.4
		c5-6.5,4.7-18.2,4.3-30.5c1.2-0.4,2.6-0.4,4,0.1c0.1,2.9,0.2,5.6,0.2,8.2c0,1,0,2,0,2.9c0,0.3,0.1,0.5,0.3,0.7
		c0.2,0.2,0.4,0.3,0.7,0.3h0c0.5,0,0.9-0.4,1-0.9c0,0,0,0,0,0c0-0.9,0-1.9,0-2.9c0-2.4-0.1-4.9-0.2-7.5c1.7,0.8,3.5,2,5.2,3.3
		c0.2,8.8-0.2,16.6-5.1,19.4c-0.4,0.2-0.5,0.7-0.3,1.1c0.2,0.4,0.7,0.5,1.1,0.3c4.5-2.6,11.5,1.4,19.7,6.3c0.2,2.2,0.2,4.3-0.1,6.1
		c-0.2-0.1-0.4-0.3-0.6-0.4c-3-1.8-5.8-3.5-8.6-5.1c-0.5-0.3-1.1-0.1-1.3,0.4c-0.1,0.1-0.1,0.3-0.1,0.5c0,0.4,0.2,0.7,0.5,0.9
		c2.7,1.5,5.6,3.2,8.6,5.1c0.4,0.2,0.7,0.4,1.1,0.7c-0.5,1.4-1.3,2.6-2.5,3.3c-0.3-0.2-0.5-0.3-0.8-0.5C22,247.6,12.7,242,5.4,242.4
		z M108.9,297.4c2.1-2.7,6.1-4.9,10.5-6.8c1.3,0.7,2.6,1.4,3.9,2.1c0.9,0.5,1.8,0.9,2.6,1.4c-2,0.9-3.8,1.8-5.3,2.9
		c-0.2-0.1-0.4-0.2-0.6-0.3l-1.1-0.6c-0.5-0.2-1.1-0.1-1.3,0.4c-0.1,0.1-0.1,0.3-0.1,0.5c0,0.4,0.2,0.7,0.5,0.8l1,0.5c0,0,0,0,0.1,0
		c-1,1-1.7,2.2-2,3.5c0,0-0.1-0.1-0.1-0.1C114.2,300.3,111.5,298.8,108.9,297.4z M166.6,297c-0.2-0.4-0.8-0.6-1.3-0.4h0
		c-0.5,0.3-1,0.5-1.5,0.8c-1.4-1.2-3.2-2.2-5.1-3.2c0.2-0.1,0.4-0.2,0.6-0.4c1.9-1.1,3.9-2.1,5.9-3.3c4.5,2,8.3,4.4,10.1,7.3
		c-2.8,1.6-5.6,3.2-8.4,4.8c-0.1-1.4-0.7-2.7-1.6-3.8c0.3-0.2,0.6-0.3,0.9-0.5c0,0,0,0,0.1,0c0,0,0,0,0,0c0.3-0.2,0.5-0.5,0.5-0.8
		C166.7,297.3,166.7,297.1,166.6,297z M158.6,292.5c-0.6,0.3-1.1,0.6-1.6,0.9c-1.7-0.7-3.4-1.4-5.1-2.1c-4.9-2-9.6-3.8-9.6-6
		c0-0.2-0.2-0.4-0.4-0.4c-0.2,0-0.4,0.2-0.4,0.4c0,2.6-4.9,4.5-10.2,6.5c-1.2,0.5-2.4,0.9-3.6,1.4c-1.2-0.7-2.5-1.3-3.7-2
		c-0.9-0.5-1.8-1-2.7-1.5c2-0.8,4-1.6,6-2.3c6.6-2.4,12.5-4.6,14.7-7.7c2.3,2.6,7.5,4.6,13.7,6.9c2.5,1,5.2,2,7.7,3
		C161.8,290.7,160.2,291.6,158.6,292.5z M156.1,293.8c-6.6,3.6-12.2,7-14.3,11.2c-1.9-4.5-7.1-7.9-13.3-11.4c1-0.4,2-0.8,3-1.2
		c4.8-1.9,9.1-3.5,10.3-5.9c1.3,2,5.2,3.6,9.7,5.3C153.1,292.6,154.6,293.2,156.1,293.8z M141.9,321.1c-3.2-7.6-13.4-13.2-24.2-19
		c0.2-1.3,1-2.4,2.1-3.5c3.5,1.8,6.7,3.6,9.7,5.4c0.2,0.1,0.3,0.2,0.5,0.2c0.3,0,0.6-0.2,0.8-0.5c0.3-0.4,0.1-1-0.3-1.3h0
		c-2.8-1.7-5.9-3.4-9.1-5.1c1.5-1.1,3.4-2,5.4-2.9c7.7,4.2,14.3,8.4,14.3,14.1c0,0.4,0.3,0.8,0.8,0.8c0.4,0,0.8-0.3,0.8-0.8
		c0-5.2,7-9.3,15.3-13.9c2,0.9,3.8,2,5.2,3.1c-0.2,0.1-0.4,0.2-0.6,0.3c-3.1,1.7-6,3.3-8.7,4.9c-0.3,0.2-0.5,0.5-0.5,0.8
		c0,0.2,0,0.3,0.1,0.5c0.2,0.3,0.5,0.5,0.8,0.5c0.2,0,0.3,0,0.5-0.1c2.6-1.6,5.5-3.2,8.5-4.8c0.4-0.2,0.8-0.5,1.2-0.7
		c1,1.1,1.6,2.4,1.6,3.8c-0.3,0.1-0.5,0.3-0.8,0.4C154.7,309.3,145.2,314.5,141.9,321.1z M203.3,267.4c0-0.6,0.1-1.2,0.1-1.8
		c0-0.6-0.5-1.1-1.1-1.1c-0.6,0-1.1,0.5-1.1,1.1c0,0.3,0,0.5,0,0.8c-0.2-0.1-0.5-0.2-0.7-0.4c-0.5-0.3-1.2-0.1-1.5,0.4
		c-0.3,0.5-0.1,1.2,0.4,1.5c0.5,0.3,1.1,0.6,1.6,0.9c-1.5,12.3-12,20.8-23.7,28c-1.9-3-5.5-5.4-9.7-7.5c9.6-5.8,18.1-12.8,18.1-23.8
		c0-0.4-0.3-0.8-0.8-0.8c-0.4,0-0.8,0.3-0.8,0.8c0,10.4-8.7,17.3-18.3,23c-3-1.4-6.2-2.6-9.3-3.7c-6.6-2.5-13.5-5.1-13.5-7.8
		c0-0.6-0.5-1.1-1.1-1.1s-1.1,0.5-1.1,1.1c0,3.2-7.3,5.9-14.3,8.5c-2.6,1-5.3,1.9-7.7,3c-9.9-5.5-19.3-12.1-19.3-22.9
		c0-0.4-0.3-0.8-0.8-0.8c-0.4,0-0.8,0.3-0.8,0.8c0,11.2,9.2,18.1,19.1,23.7c-4.3,1.9-8,4.2-10,7.1c-11.9-6.9-22.7-15.1-24.3-27.5
		c0.5-0.3,1.1-0.6,1.6-0.9c0.5-0.3,0.7-1,0.4-1.5c-0.3-0.5-1-0.7-1.5-0.4c-0.2,0.1-0.5,0.2-0.7,0.4c0-0.3,0-0.5,0-0.8
		c0-0.6-0.5-1.1-1.1-1.1c-0.6,0-1.1,0.5-1.1,1.1c0,0.6,0,1.2,0.1,1.8c-11.4,4.8-24,0.1-36.1-6.5c1.7-3.2,2-7.5,1.6-12.2
		c6.5,3.6,13.2,6.5,19.7,6.5c3.4,0,6.7-0.8,9.9-2.6c0.4-0.2,0.5-0.7,0.3-1.1c-0.2-0.4-0.7-0.5-1.1-0.3c-9,5.2-19.3,1.1-29-4.4
		c-0.3-3.3-0.9-6.7-1.4-9.9c-1.1-7-2.3-14.3,0-15.6c0.5-0.3,0.7-1,0.4-1.5c-0.3-0.5-1-0.7-1.5-0.4c0,0,0,0,0,0
		c-2.8,1.6-8.7-3.4-14.5-8.1c-2.1-1.8-4.3-3.6-6.4-5.2c-0.2-11.3,0.9-22.8,10.2-28.2c0.4-0.2,0.5-0.7,0.3-1.1
		c-0.2-0.4-0.7-0.5-1.1-0.3c-9.7,5.6-11.1,17-11,28.4c-3.8-2.7-7.6-4.8-11.2-5.1c0-13.8,1.7-27.3,11.7-34.8c0.5,0.3,1,0.7,1.6,1
		c0.2,0.1,0.4,0.1,0.5,0.1c0.4,0,0.7-0.2,0.9-0.5c0.3-0.5,0.1-1.2-0.4-1.5c-0.2-0.1-0.4-0.3-0.7-0.4c0.2-0.1,0.4-0.3,0.7-0.4
		c0.5-0.3,0.7-1,0.4-1.5c-0.3-0.5-1-0.7-1.5-0.4c-0.5,0.3-1.1,0.6-1.6,1c-9.9-7.5-12.1-20.8-12.4-34.6c3.6-0.1,7.5-2,11.3-4.7
		c0.2,11.2,2.1,22.1,11.5,27.6c0.1,0.1,0.3,0.1,0.4,0.1c0.3,0,0.5-0.1,0.7-0.4c0.2-0.4,0.1-0.9-0.3-1.1c-9-5.2-10.6-16.2-10.7-27.3
		c2.7-1.9,5.3-4.1,7.9-6.2c5.5-4.5,11.2-9.2,13.5-7.8c0.5,0.3,1.2,0.1,1.5-0.4c0.3-0.5,0.1-1.2-0.4-1.5h0c-2.8-1.6-1.5-9.2-0.2-16.6
		c0.5-2.7,1-5.5,1.3-8.2c9.7-5.8,20.2-10.6,29.5-5.2c0.4,0.2,0.9,0.1,1.1-0.3c0.2-0.4,0.1-0.9-0.3-1.1c-9.7-5.6-20.3-1.1-30.1,4.7
		c0.5-4.7,0.4-9-1.1-12.2c11.9-6.9,24.5-12.1,36-7.3c0,0.6-0.1,1.2-0.1,1.8c0,0.6,0.5,1.1,1.1,1.1c0.6,0,1.1-0.5,1.1-1.1
		c0-0.3,0-0.5,0-0.8c0.2,0.1,0.5,0.2,0.7,0.4c0.5,0.3,1.2,0.1,1.5-0.4c0.3-0.5,0.1-1.2-0.4-1.5c-0.5-0.3-1.1-0.6-1.6-0.9
		c1.5-12.3,12-20.9,23.7-28c1.9,3,5.5,5.4,9.7,7.5c-9.6,5.8-18.1,12.8-18.1,23.8c0,0.4,0.3,0.8,0.8,0.8c0.4,0,0.8-0.3,0.8-0.8
		c0-10.4,8.7-17.3,18.3-23c3,1.4,6.2,2.6,9.3,3.7c6.6,2.5,13.5,5.1,13.5,7.8c0,0.6,0.5,1.1,1.1,1.1c0.6,0,1.1-0.5,1.1-1.1
		c0-3.2,7.3-5.9,14.3-8.5c2.6-1,5.3-1.9,7.7-3c9.9,5.5,19.3,12.1,19.3,22.9c0,0.4,0.3,0.8,0.8,0.8c0.4,0,0.8-0.3,0.8-0.8
		c0-11.2-9.2-18.1-19.1-23.7c4.3-1.9,8-4.2,10-7.1c11.9,6.9,22.7,15.1,24.3,27.5c-0.5,0.3-1.1,0.6-1.6,0.9c-0.5,0.3-0.7,1-0.4,1.5
		c0.3,0.5,1,0.7,1.5,0.4c0.2-0.1,0.5-0.2,0.7-0.4c0,0.3,0,0.5,0,0.8c0,0.6,0.5,1.1,1.1,1.1c0.6,0,1.1-0.5,1.1-1.1
		c0-0.6,0-1.2-0.1-1.8c11.4-4.8,24-0.1,36.1,6.5c-1.7,3.2-2,7.5-1.6,12.2c-9.8-5.4-20.2-9.3-29.6-3.8c-0.4,0.2-0.5,0.7-0.3,1.1
		c0.2,0.4,0.7,0.5,1.1,0.3c9-5.2,19.3-1.1,29,4.4c0.3,3.3,0.9,6.7,1.4,9.9c1.1,7,2.3,14.3,0,15.6c-0.5,0.3-0.7,1-0.4,1.5
		c0.3,0.5,1,0.7,1.5,0.4c0,0,0,0,0,0c2.8-1.6,8.7,3.4,14.5,8.1c2.1,1.8,4.3,3.6,6.4,5.2c0.2,11.3-0.9,22.8-10.2,28.2
		c-0.4,0.2-0.5,0.7-0.3,1.1c0.1,0.3,0.4,0.4,0.7,0.4c0.1,0,0.3,0,0.4-0.1c9.7-5.6,11.1-17,11-28.4c3.8,2.7,7.6,4.8,11.2,5.1
		c0,13.8-1.7,27.3-11.7,34.8c-0.5-0.3-1-0.7-1.6-1c-0.5-0.3-1.2-0.1-1.5,0.4c-0.3,0.5-0.1,1.2,0.4,1.5c0.2,0.1,0.4,0.3,0.7,0.4
		c-0.2,0.1-0.4,0.3-0.7,0.4c-0.5,0.3-0.7,1-0.4,1.5c0.2,0.4,0.6,0.5,0.9,0.5c0.2,0,0.4,0,0.5-0.1c0.5-0.3,1.1-0.6,1.6-1
		c9.9,7.5,12.1,20.8,12.4,34.6c-3.6,0.1-7.5,2.1-11.3,4.7c-0.2-11.2-2.1-22.1-11.5-27.6c-0.4-0.2-0.9-0.1-1.1,0.3
		c-0.2,0.4-0.1,0.8,0.3,1.1c9,5.2,10.6,16.2,10.7,27.3c-2.7,1.9-5.3,4.1-7.9,6.2c-5.5,4.5-11.2,9.2-13.5,7.8
		c-0.5-0.3-1.2-0.1-1.5,0.4c-0.3,0.5-0.1,1.2,0.4,1.5c0,0,0,0,0,0c2.8,1.6,1.5,9.2,0.2,16.6c-0.5,2.7-1,5.5-1.3,8.2
		c-9.7,5.8-20.2,10.6-29.5,5.3c-0.4-0.2-0.9-0.1-1.1,0.3c-0.2,0.4-0.1,0.9,0.3,1.1c3.1,1.8,6.4,2.6,9.6,2.6c6.8,0,13.8-3.3,20.4-7.2
		c-0.5,4.7-0.4,9,1.1,12.2C227.4,266.9,214.8,272.2,203.3,267.4z M241.2,259c-1.3-3.2-1.2-7.7-0.6-12.5c1.3-0.8,2.5-1.5,3.7-2.3
		c0.9-0.5,1.7-1.1,2.5-1.6c-0.2,2.1-0.3,4.2-0.1,6.1c-0.2,0.2-0.5,0.3-0.7,0.5l-0.9,0.6c-0.3,0.2-0.5,0.5-0.5,0.8
		c0,0.2,0,0.3,0.1,0.5c0.2,0.3,0.5,0.5,0.8,0.5c0.2,0,0.4,0,0.5-0.1l0.8-0.5c0.1,0,0.1-0.1,0.2-0.1c0.4,1.4,1,2.6,2,3.5
		c0,0-0.1,0.1-0.1,0.1C246.4,255.8,243.8,257.4,241.2,259z M249.7,253.7c-1-0.9-1.6-2.1-2-3.5c3.3-2.1,6.5-4,9.5-5.7
		c0.5-0.2,0.6-0.8,0.4-1.3c-0.2-0.4-0.8-0.6-1.3-0.4c0,0,0,0,0,0c-2.9,1.6-5.9,3.4-9,5.3c-0.2-1.9,0-4,0.2-6.1
		c7.5-4.6,14.4-8.1,19.3-5.3l0,0c0.4,0.2,0.9,0.1,1.1-0.3c0.2-0.4,0.1-0.8-0.3-1.1c-4.5-2.6-4.6-10.7-4.4-20.2
		c1.8-1.3,3.6-2.3,5.3-3c0,0.3,0,0.5,0,0.8c-0.1,2.6-0.1,5.1-0.1,7.6c0,0.9,0,1.7,0,2.3c0,0.5,0.4,0.9,1,0.9h0c0.5,0,1-0.4,0.9-1
		c0-0.7,0-1.4,0-2.3c0-2.4,0.1-5,0.1-7.7c0-0.4,0-0.8,0-1.2c1.5-0.3,2.9-0.2,4.1,0.5c0,0.3,0,0.6,0,0.9c-0.3,12.2-0.5,23.1,3.5,29.2
		C270.1,241.2,260.2,247.2,249.7,253.7z"/>
	<path class="st0" d="M255.6,169.1c1.8,1.1,3.5,2.4,4.9,3.9c0,0,0,0,0,0h0c0.1,0.1,0.3,0.2,0.5,0.2c0.1,0,0.2,0,0.2,0
		c0.2,0,0.5-0.1,0.7-0.3c0,0,0,0,0,0c0,0,0,0,0,0c0.3-0.3,0.4-0.7,0.2-1c0-0.1-0.1-0.2-0.2-0.3c-1.6-1.6-3.4-3.1-5.4-4.2
		c-0.5-0.3-1-0.1-1.3,0.4C255,168.2,255.1,168.8,255.6,169.1z"/>
	<path class="st0" d="M266.6,184c1.1,3.6,1.7,7.7,2,12.7h0l0,0c0,0.5,0.5,0.9,1,0.9c0,0,0,0,0.1,0c0.5,0,0.9-0.5,0.9-1
		c0,0,0,0,0-0.1c-0.3-5.1-1-9.4-2.1-13.1c-0.1-0.5-0.7-0.8-1.2-0.6C266.7,182.9,266.4,183.4,266.6,184
		C266.6,183.9,266.6,183.9,266.6,184z"/>
	<path class="st0" d="M272.3,235.4c-0.1-0.1-0.1-0.2-0.2-0.3c-0.3-0.3-0.7-0.4-1-0.2c-0.1,0-0.2,0.1-0.3,0.2c0,0,0,0,0,0
		c-0.1,0.1-0.1,0.2-0.2,0.3c0,0,0,0,0,0c0,0.1-0.1,0.2-0.1,0.4c0,0.1,0,0.2,0.1,0.3l0,0c0,0,0,0,0,0c0.4,0.9,0.8,1.7,1.2,2.4
		c-0.9-0.1-1.7-0.1-2.7-0.1c0,0,0,0,0,0c-0.5,0-0.9,0.5-0.9,1c0,0.1,0,0.3,0.1,0.4c0,0.1,0.1,0.2,0.2,0.2c0,0,0,0,0,0
		c0.1,0.1,0.1,0.1,0.2,0.1c0,0,0.1,0,0.1,0c0.1,0,0.1,0,0.2,0c0.1,0,0.1,0,0.2,0c0,0,0,0,0.1,0c0,0,0,0,0,0c2.2-0.1,4.1,0.3,5.8,1.2
		c0.2,0.1,0.3,0.1,0.5,0.1c0.3,0,0.7-0.2,0.8-0.5c0.3-0.5,0.1-1-0.4-1.3l0,0C274.4,239,273.2,237.5,272.3,235.4z"/>
	<path class="st0" d="M233.8,256.3c-4.5,2.4-8.4,4-11.9,4.9c-0.4,0.1-0.7,0.5-0.7,0.9c0,0.1,0,0.2,0,0.2c0.1,0.4,0.5,0.7,0.9,0.7
		c0.1,0,0.2,0,0.2,0c3.7-1,7.8-2.6,12.4-5.1c0.3-0.2,0.5-0.5,0.5-0.8c0-0.2,0-0.3-0.1-0.5C234.8,256.2,234.2,256,233.8,256.3z"/>
	<path class="st0" d="M209.3,261.7c-2-0.5-4-1.3-5.8-2.3c-0.5-0.3-1-0.1-1.3,0.4c-0.3,0.5-0.1,1,0.4,1.3c2,1.2,4.1,2,6.3,2.5
		c0.1,0,0.1,0,0.2,0c0.4,0,0.8-0.3,0.9-0.7C210.1,262.3,209.8,261.8,209.3,261.7z"/>
	<path class="st0" d="M203,67.9c0.2,0,0.3,0,0.5-0.1c1.8-1.1,3.8-1.9,5.8-2.3c0.5-0.1,0.8-0.6,0.7-1.2c-0.1-0.3-0.2-0.5-0.4-0.6
		c-0.2-0.1-0.5-0.2-0.7-0.1c0,0,0,0,0,0c-2.2,0.5-4.3,1.4-6.3,2.5c-0.5,0.3-0.6,0.9-0.4,1.3C202.3,67.7,202.7,67.9,203,67.9z"/>
	<path class="st0" d="M221.8,65.7C221.8,65.7,221.8,65.7,221.8,65.7c3.6,0.9,7.6,2.4,12,4.6c0.1,0.1,0.3,0.1,0.4,0.1
		c0.4,0,0.7-0.2,0.9-0.5c0.1-0.1,0.1-0.3,0.1-0.4c0-0.4-0.2-0.7-0.5-0.9c-4.6-2.3-8.7-3.8-12.4-4.7c-0.5-0.1-1,0.2-1.2,0.7
		c-0.1,0.3,0,0.5,0.1,0.7C221.4,65.5,221.6,65.6,221.8,65.7z"/>
	<path class="st0" d="M269,88.3c1,0.1,1.9,0.2,2.7,0.1c-0.5,0.7-1,1.5-1.4,2.3c0,0,0,0,0,0c-0.2,0.5,0,1,0.4,1.3
		c0.1,0.1,0.3,0.1,0.4,0.1c0.2,0,0.3-0.1,0.5-0.1c0.2-0.1,0.3-0.2,0.4-0.4c1-2,2.3-3.4,4-4.4c0,0,0,0,0,0c0.5-0.3,0.6-0.9,0.4-1.3
		c-0.3-0.5-0.9-0.6-1.3-0.4l0,0c-1.6,0.9-3.5,1.2-5.8,0.9c-0.5-0.1-1,0.3-1.1,0.8C268.1,87.7,268.5,88.2,269,88.3z"/>
	<path class="st0" d="M267,144.2c0.1,0,0.2,0,0.2,0c0.4,0,0.8-0.3,0.9-0.7c1-3.7,1.6-8,1.8-13.2c0,0,0,0,0,0c0-0.5-0.4-0.9-0.9-1h0
		c-0.5,0-0.9,0.4-1,0.9c0,0,0,0,0,0c-0.2,5.1-0.8,9.2-1.7,12.8c0,0.1,0,0.2,0,0.2C266.3,143.7,266.6,144.1,267,144.2z"/>
	<path class="st0" d="M256.1,159.8c0.2,0,0.3,0,0.5-0.1c2-1.2,3.8-2.6,5.4-4.2c0,0,0,0,0,0c0.2-0.2,0.3-0.4,0.3-0.7
		c0-0.3-0.1-0.5-0.3-0.7c-0.2-0.2-0.4-0.3-0.7-0.3c-0.1,0-0.1,0-0.2,0c0,0-0.1,0-0.1,0c-0.1,0.1-0.2,0.1-0.3,0.2
		c-1.4,1.5-3.1,2.8-4.9,3.9c-0.5,0.3-0.6,0.9-0.4,1.3C255.4,159.6,255.7,159.8,256.1,159.8z"/>
	<circle class="st0" cx="141.8" cy="65.9" r="6.3"/>
	<ellipse transform="matrix(0.866 -0.5 0.5 0.866 -27.0206 57.0447)" class="st0" cx="92.9" cy="78.9" rx="6.3" ry="6.3"/>
	<ellipse transform="matrix(0.5 -0.866 0.866 0.5 -70.7455 106.87)" class="st0" cx="57.2" cy="114.7" rx="6.3" ry="6.3"/>
	<circle class="st0" cx="44.1" cy="163.5" r="6.3"/>
	<ellipse transform="matrix(0.866 -0.5 0.5 0.866 -98.5361 57.0441)" class="st0" cx="57.2" cy="212.4" rx="6.3" ry="6.3"/>
	<ellipse transform="matrix(0.5 -0.866 0.866 0.5 -168.4395 204.5655)" class="st0" cx="92.9" cy="248.2" rx="6.3" ry="6.3"/>
	<circle class="st0" cx="141.8" cy="261.2" r="6.3"/>
	<ellipse transform="matrix(0.866 -0.5 0.5 0.866 -98.5376 128.5625)" class="st0" cx="190.6" cy="248.2" rx="6.3" ry="6.3"/>
	<ellipse transform="matrix(0.5 -0.866 0.866 0.5 -70.7459 302.2564)" class="st0" cx="226.4" cy="212.4" rx="6.3" ry="6.3"/>
	<circle class="st0" cx="239.5" cy="163.5" r="6.3"/>
	<ellipse transform="matrix(0.866 -0.5 0.5 0.866 -27.0205 128.5657)" class="st0" cx="226.4" cy="114.7" rx="6.3" ry="6.3"/>
	<ellipse transform="matrix(0.5 -0.866 0.866 0.5 26.9463 204.5614)" class="st0" cx="190.6" cy="78.9" rx="6.3" ry="6.3"/>
	<polygon class="st0" points="112.1,56.4 116.2,54.3 120.2,56.4 119.4,51.9 122.7,48.7 118.2,48 116.2,43.9 114.1,48 109.6,48.7 
		112.9,51.9 	"/>
	<polygon class="st0" points="163.2,56.4 167.2,54.3 171.3,56.4 170.5,51.9 173.8,48.7 169.2,48 167.2,43.9 165.2,48 160.7,48.7 
		163.9,51.9 	"/>
	<polygon class="st0" points="34.3,131.1 38.2,128.7 33.9,127.1 32.8,122.6 29.9,126.2 25.4,125.9 27.9,129.7 26.2,134 30.6,132.7 
		34.1,135.7 	"/>
	<polygon class="st0" points="51.8,89.8 56.2,88.5 59.7,91.4 59.9,86.9 63.7,84.4 59.4,82.9 58.3,78.4 55.5,82 50.9,81.7 53.5,85.5 
			"/>
	<polygon class="st0" points="59.8,235.8 56.3,238.7 51.9,237.5 53.5,241.8 51,245.6 55.6,245.3 58.4,248.8 59.5,244.4 63.8,242.8 
		60,240.4 	"/>
	<polygon class="st0" points="34.2,191.6 30.7,194.5 26.3,193.3 28,197.5 25.5,201.3 30,201 32.9,204.6 34,200.2 38.3,198.6 
		34.4,196.2 	"/>
	<polygon class="st0" points="171.5,270.7 167.4,272.8 163.4,270.7 164.1,275.2 160.9,278.4 165.4,279.1 167.4,283.2 169.4,279.1 
		174,278.4 170.7,275.2 	"/>
	<polygon class="st0" points="120.4,270.7 116.4,272.8 112.3,270.7 113.1,275.2 109.8,278.4 114.3,279.1 116.4,283.2 118.4,279.1 
		122.9,278.4 119.6,275.2 	"/>
	<polygon class="st0" points="249.2,196 245.4,198.4 249.7,200 250.8,204.4 253.6,200.9 258.2,201.2 255.6,197.4 257.3,193.1 
		252.9,194.4 249.4,191.4 	"/>
	<polygon class="st0" points="231.8,237.3 227.4,238.6 223.9,235.7 223.7,240.2 219.9,242.7 224.1,244.2 225.3,248.7 228.1,245.1 
		232.7,245.4 230.1,241.6 	"/>
	<polygon class="st0" points="223.8,91.3 227.3,88.4 231.7,89.6 230,85.3 232.6,81.5 228,81.8 225.2,78.3 224,82.7 219.8,84.3 
		223.6,86.7 	"/>
	<polygon class="st0" points="249.3,135.5 252.8,132.6 257.2,133.8 255.6,129.6 258.1,125.8 253.5,126.1 250.7,122.5 249.6,126.9 
		245.3,128.5 249.1,130.9 	"/>
</g>
</svg>
